<?xml version="1.0" encoding="utf-8"?>
<!-- Generator: Adobe Illustrator 16.0.5, SVG Export Plug-In . SVG Version: 6.00 Build 0)  -->
<!DOCTYPE svg PUBLIC "-//W3C//DTD SVG 1.1//EN" "http://www.w3.org/Graphics/SVG/1.1/DTD/svg11.dtd">
<svg version="1.1" id="_x25_" xmlns="http://www.w3.org/2000/svg" xmlns:xlink="http://www.w3.org/1999/xlink" x="0px" y="0px"
	 width="91px" height="285px" viewBox="0 0 91 285" enable-background="new 0 0 91 285" xml:space="preserve">
<g id="_x25__1_">
	<g>
		<path fill="#666766" d="M41.139,226.333v11.444c0,3.333-1.277,6.333-5.055,6.333c-3.723,0-5.001-3-5.001-6.333v-11.444
			c0-3.334,1.278-6.333,5.001-6.333C39.861,220,41.139,222.999,41.139,226.333z M32.027,226.333v11.499
			c0,2.723,0.89,5.39,4.057,5.39c3.166,0,4.055-2.667,4.055-5.39v-11.499c0-2.778-0.889-5.444-4.055-5.444
			C32.917,220.889,32.027,223.555,32.027,226.333z M53.583,220L38.25,258.943h-0.944L52.639,220H53.583z M59.917,241.333v11.277
			c0,3.334-1.223,6.39-5.001,6.39c-3.777,0-5.055-3.056-5.055-6.39v-11.277c0-3.278,1.277-6.333,5.055-6.333
			C58.694,235,59.917,238.055,59.917,241.333z M50.861,241.333v11.332c0,2.723,0.889,5.39,4.055,5.39
			c3.167,0,4.056-2.667,4.056-5.39v-11.332c0-2.778-0.889-5.39-4.056-5.39C51.75,235.943,50.861,238.555,50.861,241.333z"/>
	</g>
	<path fill="#EEEEEE" d="M45.5,285C20.412,285,0,264.589,0,239.5C0,214.412,20.412,194,45.5,194c25.089,0,45.5,20.412,45.5,45.5
		C91,264.589,70.589,285,45.5,285z M45.5,194.989c-24.543,0-44.511,19.968-44.511,44.511c0,24.544,19.967,44.511,44.511,44.511
		c24.544,0,44.511-19.967,44.511-44.511C90.011,214.957,70.044,194.989,45.5,194.989z"/>
</g>
<g id="_x40__1_">
	<g>
		<path fill="#666766" d="M61.064,137.117c0,5.891-2.031,15.133-8.277,15.184c-2.133,0-3.098-1.676-3.148-3.605
			c-1.016,2.539-2.895,4.164-5.687,4.164c-4.316-0.051-5.332-3.961-4.926-7.77l0.508-4.977c0.406-3.961,2.387-7.262,6.5-7.262
			c2.539,0.051,4.164,1.32,4.773,3.758l0.355-3.453h1.066l-1.523,14.422c-0.152,1.676,0.254,3.707,2.285,3.707
			c5.738-0.051,7.16-9.395,7.109-14.117c0-8.227-3.809-13.203-12.391-13.203c-12.086,0-16.757,10.512-16.757,21.531
			c0,9.852,4.52,15.539,14.625,15.539c3.148,0,6.55-0.762,9.089-2.793l-0.051,1.168c-2.742,1.879-5.84,2.59-9.089,2.59
			c-10.766,0-15.591-6.145-15.591-16.555c0-11.375,5.028-22.445,17.825-22.445C57.002,123,61.064,128.484,61.064,137.117z
			 M40.549,140.215l-0.509,4.977c-0.304,3.148,0.407,6.652,4.216,6.652c3.757,0,5.332-3.352,5.636-6.754l0.559-4.926
			c0.355-3.199-0.559-6.246-4.215-6.246C42.53,133.918,40.955,136.863,40.549,140.215z"/>
	</g>
	<path fill="#EEEEEE" d="M45.5,188C20.411,188,0,167.589,0,142.5C0,117.412,20.411,97,45.5,97S91,117.412,91,142.5
		C91,167.589,70.589,188,45.5,188z M45.5,97.989c-24.544,0-44.511,19.968-44.511,44.511c0,24.544,19.967,44.511,44.511,44.511
		s44.511-19.967,44.511-44.511C90.011,117.957,70.044,97.989,45.5,97.989z"/>
</g>
<g id="_x24__1_">
	<g>
		<path fill="#666766" d="M45.995,28.967c4.664,0.236,6.359,3.862,6.359,8.196v0.612h-0.99v-0.659c0-3.91-1.506-7.16-5.792-7.16
			c-4.286,0-5.794,3.203-5.794,7.112c0,8.478,12.624,8.102,12.624,17.051c0,4.38-1.742,7.96-6.406,8.196V65H45.1v-2.685
			c-4.711-0.189-6.501-3.768-6.501-8.196v-1.649h1.036v1.696c0,4.003,1.508,7.16,5.841,7.16c4.381,0,5.887-3.156,5.887-7.16
			c0-8.337-12.623-7.96-12.623-17.05c0-4.616,1.837-7.866,6.359-8.149V26h0.895V28.967z"/>
	</g>
	<path fill="#EEEEEE" d="M45.5,91C20.411,91,0,70.589,0,45.5C0,20.412,20.411,0,45.5,0S91,20.412,91,45.5
		C91,70.589,70.589,91,45.5,91z M45.5,0.989C20.956,0.989,0.989,20.957,0.989,45.5c0,24.544,19.967,44.511,44.511,44.511
		S90.011,70.044,90.011,45.5C90.011,20.957,70.044,0.989,45.5,0.989z"/>
</g>
</svg>
