<svg xmlns="http://www.w3.org/2000/svg" width="91" height="285" viewBox="0 0 91 285"><path fill="#666766" d="M41.139 226.333v11.444c0 3.332-1.277 6.332-5.055 6.332-3.723 0-5.001-3-5.001-6.332v-11.444c0-3.334 1.278-6.333 5.001-6.333 3.777 0 5.055 2.999 5.055 6.333zm-9.112 0v11.499c0 2.723.89 5.391 4.057 5.391 3.166 0 4.055-2.668 4.055-5.391v-11.499c0-2.778-.889-5.444-4.055-5.444-3.167 0-4.057 2.666-4.057 5.444zM53.583 220L38.25 258.943h-.943L52.639 220h.944zm6.334 21.333v11.276c0 3.334-1.224 6.391-5.001 6.391s-5.055-3.057-5.055-6.391v-11.276c0-3.278 1.277-6.333 5.055-6.333s5.001 3.055 5.001 6.333zm-9.056 0v11.332c0 2.724.889 5.39 4.055 5.39 3.167 0 4.057-2.666 4.057-5.39v-11.332c0-2.778-.89-5.39-4.057-5.39-3.166 0-4.055 2.612-4.055 5.39z"/><path fill="#EEE" d="M45.5 285C20.412 285 0 264.589 0 239.5 0 214.412 20.412 194 45.5 194c25.089 0 45.5 20.412 45.5 45.5 0 25.089-20.411 45.5-45.5 45.5zm0-90.011C20.957 194.989.989 214.957.989 239.5c0 24.544 19.967 44.511 44.511 44.511s44.512-19.967 44.512-44.511c0-24.543-19.968-44.512-44.512-44.511z"/><path fill="#666766" d="M61.064 137.117c0 5.891-2.031 15.133-8.277 15.184-2.133 0-3.098-1.676-3.148-3.605-1.016 2.539-2.895 4.164-5.687 4.164-4.315-.051-5.332-3.961-4.927-7.77l.509-4.977c.405-3.961 2.387-7.262 6.5-7.262 2.539.051 4.164 1.319 4.772 3.758l.355-3.453h1.066l-1.523 14.422c-.152 1.676.254 3.707 2.285 3.707 5.738-.051 7.16-9.395 7.109-14.117 0-8.227-3.81-13.203-12.392-13.203-12.086 0-16.757 10.512-16.757 21.531 0 9.852 4.52 15.539 14.625 15.539 3.148 0 6.55-.762 9.089-2.793l-.052 1.168c-2.741 1.879-5.84 2.59-9.088 2.59-10.767 0-15.592-6.145-15.592-16.555 0-11.375 5.028-22.445 17.825-22.445 9.246 0 13.308 5.484 13.308 14.117zm-20.515 3.098l-.509 4.977c-.304 3.148.407 6.652 4.216 6.652 3.758 0 5.332-3.352 5.637-6.754l.559-4.926c.355-3.199-.559-6.246-4.215-6.246-3.708 0-5.282 2.945-5.688 6.297z"/><path fill="#EEE" d="M45.5 188C20.411 188 0 167.589 0 142.5 0 117.412 20.411 97 45.5 97S91 117.412 91 142.5c0 25.089-20.411 45.5-45.5 45.5zm0-90.011C20.956 97.989.989 117.957.989 142.5c0 24.544 19.967 44.511 44.511 44.511s44.512-19.967 44.512-44.511c0-24.543-19.968-44.511-44.512-44.511z"/><path fill="#666766" d="M45.995 28.967c4.664.236 6.358 3.862 6.358 8.196v.612h-.99v-.659c0-3.91-1.506-7.16-5.791-7.16-4.286 0-5.795 3.203-5.795 7.112 0 8.478 12.625 8.102 12.625 17.051 0 4.38-1.742 7.96-6.406 8.196V65H45.1v-2.685c-4.711-.189-6.5-3.768-6.5-8.196V52.47h1.035v1.696c0 4.003 1.508 7.16 5.842 7.16 4.381 0 5.887-3.156 5.887-7.16 0-8.337-12.623-7.96-12.623-17.05 0-4.616 1.837-7.866 6.359-8.149V26h.895v2.967z"/><path fill="#EEE" d="M45.5 91C20.411 91 0 70.589 0 45.5 0 20.412 20.411 0 45.5 0S91 20.412 91 45.5C91 70.589 70.589 91 45.5 91zm0-90.011C20.956.989.989 20.957.989 45.5c0 24.544 19.967 44.511 44.511 44.511S90.012 70.044 90.012 45.5C90.012 20.957 70.044.989 45.5.989z"/></svg>