<svg version="1.1" xmlns="http://www.w3.org/2000/svg" xmlns:xlink="http://www.w3.org/1999/xlink" x="0px" y="0px" width="360px"
	 height="360px" viewBox="0 0 360 360" enable-background="new 0 0 360 360" xml:space="preserve">
<g id="outline">
	<g>
		<path fill="none" stroke="#231F20" stroke-width="2" stroke-miterlimit="10" d="M337.655,122.124
			c1.304-4.864,3.704-9.134,6.85-12.626c-5.616-13.147-12.687-25.353-20.976-36.469c-4.72,1.146-9.776,1.161-14.786-0.182
			c-15.732-4.214-25.174-20.243-21.545-36.162c-11.309-8.446-23.581-15.537-36.545-21.118c-7.392,7.015-18.078,10.147-28.561,7.339
			c-10.498-2.813-18.193-10.886-21.077-20.675c-13.811-1.637-27.958-1.665-42.194,0.05c-4.814,15.604-21.008,24.765-36.741,20.549
			c-4.998-1.339-9.359-3.872-12.871-7.213c-13.137,5.638-25.328,12.731-36.43,21.042c0.985,4.606,0.931,9.516-0.375,14.39
			c-4.257,15.886-20.148,25.504-35.876,21.967c-8.384,11.258-15.427,23.467-20.976,36.361c6.62,7.406,9.492,17.958,6.707,28.347
			c-2.787,10.404-10.568,18.114-20.021,21.209c-1.632,13.74-1.674,27.813,0.012,41.976c15.394,4.796,24.352,21.077,20.095,36.966
			c-1.303,4.865-3.702,9.136-6.849,12.628c5.616,13.147,12.686,25.353,20.975,36.468c4.721-1.146,9.776-1.16,14.786,0.181
			c15.73,4.216,25.173,20.243,21.545,36.163c11.308,8.446,23.581,15.536,36.545,21.117c7.392-7.016,18.077-10.147,28.562-7.338
			c10.496,2.812,18.191,10.885,21.075,20.675c13.812,1.637,27.959,1.664,42.195-0.05c4.816-15.604,21.008-24.767,36.742-20.551
			c4.998,1.34,9.358,3.872,12.872,7.214c13.135-5.637,25.327-12.731,36.428-21.041c-0.986-4.605-0.931-9.515,0.376-14.39
			c4.256-15.886,20.146-25.504,35.875-21.968c8.386-11.262,15.432-23.477,20.981-36.376c-6.621-7.405-9.493-17.958-6.709-28.348
			c2.786-10.403,10.566-18.113,20.019-21.209c1.632-13.734,1.671-27.804-0.013-41.961
			C342.355,154.292,333.398,138.012,337.655,122.124z M219.888,328.865c-82.215,22.028-166.723-26.76-188.754-108.978
			C9.105,137.673,57.896,53.166,140.112,31.136c82.217-22.03,166.724,26.76,188.754,108.976
			C350.896,222.329,302.106,306.834,219.888,328.865z"/>
		<g>
			<path fill="none" stroke="#231F20" stroke-width="2" stroke-miterlimit="10" d="M271.925,277.94l-71.291-71.286
				c-1.383,0.649-2.732,1.354-4.038,2.107c-1.305,0.753-2.589,1.568-3.84,2.44l26.094,97.385c6.197,0.537,12.368-0.003,18.385-1.615
				c0,0,0,0,0.001-0.001c4.448-1.191,8.75-2.968,12.787-5.279l0.521-0.304C259.986,295.844,267.335,287.773,271.925,277.94z"/>
			<path fill="none" stroke="#231F20" stroke-width="2" stroke-miterlimit="10" d="M210.64,310.792l-26.092-97.382
				c-1.52-0.128-3.044-0.193-4.554-0.193c-1.507,0-3.028,0.065-4.545,0.195l-26.095,97.386c8.947,6.259,19.412,9.572,30.44,9.611
				l0.633-0.003c4.552-0.033,9.099-0.646,13.479-1.819C199.927,316.975,205.543,314.355,210.64,310.792z"/>
			<path fill="none" stroke="#231F20" stroke-width="2" stroke-miterlimit="10" d="M110.163,301.803
				c9.511,5.401,20.174,7.731,30.988,6.791l26.096-97.384c-1.253-0.87-2.539-1.688-3.846-2.442
				c-1.305-0.754-2.654-1.459-4.035-2.107l-71.291,71.292c4.619,9.896,12.029,18,21.562,23.55L110.163,301.803z"/>
			<path fill="none" stroke="#231F20" stroke-width="2" stroke-miterlimit="10" d="M58.308,250.042l0.307,0.527
				c5.541,9.438,13.61,16.785,23.444,21.374l71.289-71.287c-0.649-1.38-1.354-2.731-2.108-4.038
				c-0.753-1.306-1.571-2.591-2.441-3.841L51.412,218.87C50.465,229.75,52.827,240.473,58.308,250.042z"/>
			<path fill="none" stroke="#231F20" stroke-width="2" stroke-miterlimit="10" d="M146.59,175.453l-97.387-26.096
				c-6.261,8.949-9.575,19.417-9.614,30.447l0.003,0.588c0.078,10.957,3.393,21.358,9.615,30.25l97.382-26.094
				c0.13-1.518,0.194-3.04,0.192-4.551C146.784,178.49,146.719,176.97,146.59,175.453z"/>
			<path fill="none" stroke="#231F20" stroke-width="2" stroke-miterlimit="10" d="M153.331,159.374L82.039,88.083
				c-9.899,4.622-18.005,12.032-23.553,21.569l-0.28,0.489c-5.417,9.529-7.749,20.199-6.808,31.019l97.383,26.093
				c0.871-1.251,1.688-2.537,2.444-3.846C151.979,162.103,152.684,160.753,153.331,159.374z"/>
			<path fill="none" stroke="#231F20" stroke-width="2" stroke-miterlimit="10" d="M88.068,82.053l71.289,71.289
				c1.38-0.648,2.73-1.353,4.037-2.107c1.306-0.753,2.591-1.57,3.842-2.441l-26.094-97.385c-6.196-0.537-12.369,0.004-18.388,1.617
				c-4.451,1.193-8.758,2.971-12.798,5.286l-0.502,0.292C100.018,64.138,92.662,72.211,88.068,82.053z"/>
			<path fill="none" stroke="#231F20" stroke-width="2" stroke-miterlimit="10" d="M149.35,49.215l26.093,97.38
				c1.522,0.129,3.047,0.194,4.553,0.194c1.508,0,3.027-0.065,4.545-0.193l26.098-97.385c-8.956-6.263-19.427-9.577-30.46-9.613
				l-0.545,0.001c-4.6,0.031-9.158,0.644-13.552,1.821C160.064,43.033,154.449,45.65,149.35,49.215z"/>
			<path fill="none" stroke="#231F20" stroke-width="2" stroke-miterlimit="10" d="M249.871,58.224
				c-9.532-5.423-20.209-7.76-31.036-6.816l-26.095,97.381c1.253,0.873,2.54,1.69,3.844,2.443c1.307,0.754,2.656,1.459,4.034,2.106
				l71.294-71.291c-4.625-9.905-12.04-18.014-21.58-23.56L249.871,58.224z"/>
			<path fill="none" stroke="#231F20" stroke-width="2" stroke-miterlimit="10" d="M301.678,109.956l-0.288-0.496
				c-5.519-9.42-13.599-16.783-23.448-21.38l-71.289,71.288c0.648,1.38,1.354,2.732,2.107,4.04c0.758,1.307,1.574,2.592,2.442,3.84
				l97.386-26.094C309.534,130.262,307.168,119.531,301.678,109.956z"/>
			<path fill="none" stroke="#231F20" stroke-width="2" stroke-miterlimit="10" d="M320.41,180.175l-0.001-0.524
				c-0.068-10.964-3.383-21.382-9.614-30.292l-97.384,26.094c-0.13,1.519-0.195,3.043-0.196,4.554
				c0.001,1.504,0.066,3.025,0.195,4.544l97.387,26.095C317.062,201.688,320.377,191.212,320.41,180.175z"/>
			<path fill="none" stroke="#231F20" stroke-width="2" stroke-miterlimit="10" d="M206.646,200.63l71.292,71.291
				c9.908-4.624,18.018-12.042,23.565-21.59l0.235-0.411c5.443-9.551,7.783-20.236,6.839-31.075l-97.383-26.093
				c-0.867,1.245-1.684,2.532-2.442,3.846C207.997,197.904,207.293,199.253,206.646,200.63z"/>
		</g>
	</g>
</g>
</svg>
