<svg xmlns="http://www.w3.org/2000/svg" xmlns:xlink="http://www.w3.org/1999/xlink" width="360" height="360" viewBox="0 0 360 360"><path fill="#E3FF00" d="M-119.998 1280h600v600h-600z"/><path d="M402.494 1498.32a43.267 43.267 0 0 1 9.664-17.816 250.692 250.692 0 0 0-29.6-51.469 42.09 42.09 0 0 1-20.867-.256c-22.203-5.949-35.527-28.568-30.406-51.035a254.072 254.072 0 0 0-51.574-29.803c-10.432 9.9-25.514 14.32-40.307 10.355-14.816-3.969-25.676-15.361-29.746-29.178a250.846 250.846 0 0 0-59.547.07c-6.795 22.021-29.646 34.951-51.852 29.002a42.07 42.07 0 0 1-18.166-10.18 250.633 250.633 0 0 0-51.41 29.695 43.279 43.279 0 0 1-.529 20.309c-6.008 22.418-28.436 35.992-50.631 31a254.141 254.141 0 0 0-29.602 51.316 43.165 43.165 0 0 1 9.465 40.006 43.166 43.166 0 0 1-28.256 29.932 250.721 250.721 0 0 0 .016 59.24c21.727 6.77 34.367 29.744 28.361 52.17a43.31 43.31 0 0 1-9.666 17.82 250.859 250.859 0 0 0 29.6 51.465 42.067 42.067 0 0 1 20.867.256c22.199 5.949 35.525 28.568 30.406 51.035a254.018 254.018 0 0 0 51.574 29.803c10.432-9.9 25.512-14.32 40.309-10.355 14.812 3.969 25.672 15.361 29.744 29.178a250.758 250.758 0 0 0 59.549-.07c6.795-22.021 29.646-34.953 51.852-29.002a42.063 42.063 0 0 1 18.164 10.18 250.633 250.633 0 0 0 51.41-29.695 43.27 43.27 0 0 1 .531-20.307c6.006-22.42 28.432-35.994 50.629-31.004a254.203 254.203 0 0 0 29.609-51.334 43.167 43.167 0 0 1-9.467-40.008 43.169 43.169 0 0 1 28.252-29.932 250.775 250.775 0 0 0-.018-59.221c-21.725-6.768-34.366-29.743-28.358-52.167zm-166.201 291.77c-116.027 31.09-235.291-37.766-266.383-153.797-31.09-116.029 37.77-235.291 153.797-266.381 116.031-31.092 235.291 37.766 266.383 153.795 31.09 116.031-37.766 235.291-153.797 266.383z"/><path d="M309.73 1718.221l-100.611-100.604a75.85 75.85 0 0 0-11.117 6.418l36.826 137.438a74.863 74.863 0 0 0 25.945-2.281h.002a75.859 75.859 0 0 0 18.045-7.451l.736-.428c13.327-7.825 23.698-19.213 30.174-33.092zm-86.49 46.363l-36.824-137.432a76.848 76.848 0 0 0-6.424-.275 77.197 77.197 0 0 0-6.416.275l-36.824 137.439c12.625 8.832 27.395 13.508 42.959 13.564l.893-.002a75.795 75.795 0 0 0 19.023-2.57 74.79 74.79 0 0 0 23.613-10.999zm-141.797-12.688c13.42 7.623 28.469 10.912 43.73 9.584l36.828-137.434a76.547 76.547 0 0 0-5.426-3.447 76.57 76.57 0 0 0-5.695-2.975L50.27 1718.238c6.52 13.965 16.977 25.404 30.43 33.234l.743.424zM8.26 1678.85l.434.744c7.82 13.32 19.207 23.688 33.086 30.164l100.607-100.605a76.326 76.326 0 0 0-2.975-5.701 77.225 77.225 0 0 0-3.445-5.42l-137.439 36.826c-1.337 15.353 1.999 30.484 9.732 43.992zm124.59-105.268l-137.44-36.828c-8.836 12.629-13.514 27.402-13.568 42.971l.004.83c.111 15.461 4.789 30.141 13.57 42.691l137.432-36.824a76.08 76.08 0 0 0 .002-12.84zm9.513-22.691L41.752 1450.279c-13.971 6.521-25.41 16.98-33.24 30.439l-.395.691c-7.645 13.447-10.936 28.506-9.607 43.775l137.432 36.826a75.363 75.363 0 0 0 3.449-5.428 75.325 75.325 0 0 0 2.972-5.691zM50.26 1441.77l100.609 100.609a75.71 75.71 0 0 0 5.697-2.977 75.704 75.704 0 0 0 5.422-3.443l-36.826-137.438a74.89 74.89 0 0 0-25.949 2.281 75.82 75.82 0 0 0-18.061 7.461l-.709.412c-13.318 7.811-23.701 19.206-30.183 33.095zm86.486-46.344l36.822 137.432c2.148.182 4.299.273 6.428.273 2.125 0 4.271-.092 6.412-.273l36.83-137.438c-12.639-8.838-27.418-13.516-42.988-13.566l-.768.002a75.93 75.93 0 0 0-19.125 2.57 74.842 74.842 0 0 0-23.611 11zm141.861 12.715c-13.451-7.654-28.52-10.953-43.801-9.621l-36.826 137.434a75.894 75.894 0 0 0 11.119 6.42l100.611-100.609c-6.525-13.98-16.99-25.424-30.453-33.252l-.65-.372zm73.112 73.007l-.404-.699c-7.789-13.295-19.189-23.686-33.094-30.174l-100.607 100.607c.916 1.947 1.91 3.855 2.977 5.701s2.221 3.658 3.445 5.418l137.438-36.824c1.335-15.37-2.007-30.515-9.755-44.029zm26.437 99.1l-.002-.74c-.096-15.475-4.773-30.176-13.568-42.75l-137.434 36.826a75.257 75.257 0 0 0-.002 12.84l137.439 36.828c8.843-12.643 13.52-27.43 13.567-43.004zm-160.551 28.865l100.613 100.613c13.98-6.525 25.426-16.996 33.256-30.471l.332-.578c7.68-13.48 10.984-28.561 9.648-43.855l-137.432-36.826a76.79 76.79 0 0 0-3.447 5.428 77.624 77.624 0 0 0-2.97 5.689zM-820 1280h600v600h-600z"/><g fill="#E3FF00"><path d="M-326.225 1443.519a43.287 43.287 0 0 1 4.724-19.714 250.874 250.874 0 0 0-41.912-42.052 42.057 42.057 0 0 1-20.223 5.152c-22.986.001-41.711-18.399-42.579-41.425a254.059 254.059 0 0 0-57.531-15.439c-7.514 12.264-20.937 20.436-36.252 20.436-15.338 0-28.777-8.194-36.284-20.485a250.808 250.808 0 0 0-57.5 15.479c-.863 23.03-19.59 41.434-42.578 41.435a42.077 42.077 0 0 1-20.182-5.132 250.766 250.766 0 0 0-41.974 41.988 43.279 43.279 0 0 1 4.746 19.754c0 23.21-18.152 42.127-40.883 43.049a254.097 254.097 0 0 0-15.31 57.229 43.173 43.173 0 0 1 19.497 36.193 43.168 43.168 0 0 1-19.547 36.225 250.834 250.834 0 0 0 15.347 57.217c22.738.916 40.896 19.836 40.897 43.052a43.285 43.285 0 0 1-4.724 19.715 250.831 250.831 0 0 0 41.911 42.052 42.08 42.08 0 0 1 20.222-5.154c22.984.001 41.708 18.4 42.58 41.427a254.043 254.043 0 0 0 57.531 15.438c7.513-12.263 20.937-20.436 36.253-20.436 15.335 0 28.775 8.193 36.283 20.485a250.867 250.867 0 0 0 57.501-15.479c.865-23.03 19.591-41.435 42.58-41.435a42.053 42.053 0 0 1 20.181 5.132 250.728 250.728 0 0 0 41.973-41.989 43.253 43.253 0 0 1-4.744-19.752c-.001-23.211 18.147-42.127 40.881-43.052a254.174 254.174 0 0 0 15.313-57.249 43.169 43.169 0 0 1-19.499-36.194 43.162 43.162 0 0 1 19.542-36.224 250.733 250.733 0 0 0-15.345-57.197c-22.738-.917-40.894-19.837-40.895-43.05zm-85.022 324.841c-104.028 60.061-237.049 24.42-297.111-79.61-60.061-104.029-24.418-237.05 79.611-297.111 104.03-60.062 237.049-24.418 297.11 79.611 60.063 104.029 24.42 237.048-79.61 297.11z"/><path d="M-358.914 1679.935l-123.22-71.136a76.523 76.523 0 0 0-4.734 4.347 76.385 76.385 0 0 0-4.344 4.729l71.143 123.223a74.851 74.851 0 0 0 24.473-8.917l.001-.001a75.828 75.828 0 0 0 15.501-11.868l.601-.604c10.847-11.008 17.915-24.692 20.579-39.773zm-71.542 67.167l-71.139-123.217a76.935 76.935 0 0 0-6.278 1.397 77.708 77.708 0 0 0-6.124 1.925v142.288c14.482 5.264 29.959 5.958 45.007 1.983l.861-.233a75.778 75.778 0 0 0 17.712-7.406 74.862 74.862 0 0 0 19.961-16.737zm-140.25 24.447c14.936 3.89 30.324 3.17 44.723-2.062l.001-142.282a75.813 75.813 0 0 0-12.404-3.325l-71.142 123.225c9.912 11.803 22.972 20.145 37.996 24.228l.826.216zm-89.594-51.618l.611.606c11 10.842 24.683 17.909 39.764 20.573l71.141-123.218a75.882 75.882 0 0 0-9.079-9.079l-123.223 71.143c2.682 15.177 9.819 28.93 20.786 39.975zm93.098-133.927l-142.289-.001c-5.266 14.485-5.959 29.966-1.984 45.017l.219.801c4.109 14.906 12.427 27.875 24.156 37.725l123.219-71.141a76.025 76.025 0 0 0-3.321-12.401zm3.317-24.381l-123.224-71.143c-11.807 9.915-20.149 22.979-24.228 38.005l-.204.771c-3.902 14.967-3.185 30.365 2.052 44.77l142.28.002a76.675 76.675 0 0 0 1.927-6.137 76.145 76.145 0 0 0 1.397-6.268zm-117.207-81.564l123.219 71.141a75.838 75.838 0 0 0 9.078-9.078l-71.141-123.224a74.882 74.882 0 0 0-24.475 8.92 75.8 75.8 0 0 0-15.515 11.882l-.578.581c-10.844 10.991-17.921 24.684-20.588 39.778zm71.543-67.15l71.137 123.218a75.536 75.536 0 0 0 12.404-3.322l.004-142.286c-14.495-5.269-29.981-5.96-45.035-1.979l-.74.2a75.973 75.973 0 0 0-17.808 7.433 74.844 74.844 0 0 0-19.962 16.736zm140.319-24.434c-14.974-3.912-30.383-3.198-44.798 2.043l-.001 142.282a76.185 76.185 0 0 0 6.131 1.926 75.943 75.943 0 0 0 6.271 1.397l71.144-123.224c-9.922-11.812-22.991-20.157-38.021-24.234l-.726-.19zm89.516 51.597l-.573-.57c-10.963-10.827-24.665-17.912-39.774-20.581l-71.141 123.219a77.122 77.122 0 0 0 4.351 4.736 77.01 77.01 0 0 0 4.73 4.342l123.223-71.142c-2.687-15.192-9.833-28.956-20.816-40.004zm51.185 88.879l-.193-.713c-4.099-14.922-12.421-27.912-24.17-37.781l-123.22 71.142a76.012 76.012 0 0 0 1.396 6.278 76.584 76.584 0 0 0 1.926 6.125h142.287c5.269-14.5 5.961-29.993 1.974-45.051zm-147.61 69.438l123.225 71.143c11.816-9.921 20.162-22.996 24.238-38.039l.17-.645c3.931-15.009 3.219-30.43-2.029-44.859h-142.28a75.928 75.928 0 0 0-3.324 12.4z"/></g><path fill="#32CD32" d="M-119.998 580.002h600v600h-600z"/><g fill="#FFF"><path d="M402.496 798.322a43.279 43.279 0 0 1 9.665-17.817 250.78 250.78 0 0 0-29.601-51.468 42.09 42.09 0 0 1-20.867-.256c-22.203-5.949-35.527-28.569-30.406-51.035a254.104 254.104 0 0 0-51.575-29.804c-10.432 9.9-25.512 14.321-40.306 10.356-14.815-3.969-25.676-15.362-29.746-29.178a250.846 250.846 0 0 0-59.547.07c-6.795 22.021-29.647 34.95-51.852 29.001a42.064 42.064 0 0 1-18.166-10.179 250.728 250.728 0 0 0-51.41 29.694 43.292 43.292 0 0 1-.529 20.309c-6.008 22.419-28.437 35.993-50.631 31.001a254.169 254.169 0 0 0-29.602 51.316 43.165 43.165 0 0 1 9.465 40.006 43.168 43.168 0 0 1-28.256 29.932 250.774 250.774 0 0 0 .016 59.24c21.726 6.77 34.367 29.744 28.36 52.169a43.285 43.285 0 0 1-9.665 17.82 250.814 250.814 0 0 0 29.6 51.466 42.066 42.066 0 0 1 20.867.256c22.2 5.949 35.525 28.568 30.406 51.035a253.999 253.999 0 0 0 51.575 29.803c10.431-9.9 25.511-14.32 40.307-10.356 14.813 3.97 25.673 15.362 29.744 29.178a250.81 250.81 0 0 0 59.549-.069c6.796-22.021 29.646-34.952 51.853-29.002a42.058 42.058 0 0 1 18.165 10.18 250.8 250.8 0 0 0 51.41-29.694 43.274 43.274 0 0 1 .529-20.308c6.007-22.42 28.433-35.994 50.631-31.004a254.183 254.183 0 0 0 29.609-51.335 43.169 43.169 0 0 1-9.468-40.008 43.164 43.164 0 0 1 28.252-29.931 250.775 250.775 0 0 0-.018-59.221c-21.725-6.769-34.366-29.743-28.358-52.167zm-166.201 291.769c-116.027 31.09-235.291-37.765-266.382-153.796-31.09-116.029 37.768-235.292 153.796-266.382 116.031-31.091 235.292 37.767 266.382 153.796C421.182 939.74 352.326 1059 236.295 1090.091z"/><path d="M309.731 1018.223L209.122 917.619a75.775 75.775 0 0 0-11.118 6.418l36.826 137.437a74.843 74.843 0 0 0 25.946-2.279l.001-.001a75.834 75.834 0 0 0 18.045-7.451l.736-.429c13.328-7.825 23.697-19.213 30.173-33.091zm-86.488 46.362l-36.824-137.431a76.462 76.462 0 0 0-6.425-.274 77.152 77.152 0 0 0-6.415.274l-36.825 137.439c12.626 8.832 27.396 13.509 42.958 13.564l.894-.003a75.808 75.808 0 0 0 19.024-2.569 74.801 74.801 0 0 0 23.613-11zm-141.799-12.687c13.421 7.624 28.47 10.912 43.732 9.584l36.827-137.434a76.196 76.196 0 0 0-11.121-6.422l-100.61 100.612c6.52 13.966 16.976 25.404 30.43 33.235l.742.425zM8.263 978.852l.433.744c7.819 13.319 19.207 23.688 33.085 30.164l100.608-100.606a76.707 76.707 0 0 0-2.976-5.7 76.979 76.979 0 0 0-3.444-5.42L-1.47 934.859c-1.337 15.354 1.998 30.486 9.733 43.993zm124.589-105.268l-137.44-36.828c-8.835 12.629-13.513 27.402-13.567 42.97l.004.83c.111 15.462 4.788 30.142 13.57 42.691l137.431-36.824c.183-2.144.274-4.292.272-6.425a75.034 75.034 0 0 0-.27-6.414zm9.514-22.692L41.754 750.281c-13.972 6.521-25.41 16.98-33.239 30.439l-.396.69c-7.644 13.447-10.935 28.506-9.605 43.776l137.432 36.825a76.194 76.194 0 0 0 3.449-5.428 76.428 76.428 0 0 0 2.971-5.691zM50.263 741.771L150.871 842.38a75.814 75.814 0 0 0 11.118-6.419l-36.825-137.438a74.88 74.88 0 0 0-25.948 2.281 75.893 75.893 0 0 0-18.062 7.461l-.709.412c-13.318 7.811-23.7 19.205-30.182 33.094zm86.485-46.343l36.821 137.431a75.872 75.872 0 0 0 12.842.002l36.829-137.438c-12.638-8.839-27.417-13.516-42.988-13.566l-.767.002a75.932 75.932 0 0 0-19.126 2.57 74.785 74.785 0 0 0-23.611 10.999zm141.861 12.714c-13.451-7.653-28.52-10.952-43.801-9.62l-36.826 137.434a76.104 76.104 0 0 0 5.424 3.446 76.226 76.226 0 0 0 5.695 2.973l100.612-100.609c-6.526-13.979-16.991-25.423-30.454-33.251l-.65-.373zm73.113 73.008l-.406-.7c-7.787-13.295-19.188-23.685-33.093-30.173L217.616 850.885a76.164 76.164 0 0 0 2.975 5.701 76.839 76.839 0 0 0 3.446 5.418l137.437-36.824c1.337-15.371-2.004-30.516-9.752-44.03zm26.436 99.099l-.002-.739c-.097-15.474-4.773-30.176-13.568-42.75l-137.434 36.825a75.718 75.718 0 0 0-.276 6.428 76.83 76.83 0 0 0 .275 6.414l137.438 36.826c8.844-12.642 13.521-27.428 13.567-43.004zm-160.552 28.866l100.613 100.613c13.981-6.526 25.427-16.996 33.257-30.471l.331-.579c7.682-13.479 10.985-28.56 9.65-43.854l-137.432-36.826a75.852 75.852 0 0 0-6.419 11.117z"/></g><path fill="#FFF" d="M-820 580h600v600h-600z"/><g fill="#32CD32"><path d="M-326.226 743.52a43.283 43.283 0 0 1 4.725-19.715 250.873 250.873 0 0 0-41.913-42.051 42.065 42.065 0 0 1-20.223 5.152c-22.986.002-41.711-18.4-42.579-41.426a254.163 254.163 0 0 0-57.531-15.439c-7.514 12.264-20.937 20.438-36.252 20.436-15.337.002-28.777-8.193-36.284-20.484a250.76 250.76 0 0 0-57.5 15.48c-.863 23.029-19.591 41.434-42.579 41.434a42.066 42.066 0 0 1-20.182-5.133 250.76 250.76 0 0 0-41.973 41.988 43.297 43.297 0 0 1 4.746 19.756c0 23.209-18.151 42.125-40.882 43.049a254.057 254.057 0 0 0-15.311 57.229 43.173 43.173 0 0 1 19.497 36.193 43.169 43.169 0 0 1-19.546 36.225 250.782 250.782 0 0 0 15.347 57.217c22.738.916 40.896 19.836 40.897 43.051a43.288 43.288 0 0 1-4.723 19.715 250.8 250.8 0 0 0 41.911 42.053 42.072 42.072 0 0 1 20.223-5.154c22.984 0 41.708 18.4 42.579 41.426a253.94 253.94 0 0 0 57.531 15.439c7.513-12.264 20.937-20.436 36.253-20.436 15.335 0 28.774 8.193 36.282 20.484a250.824 250.824 0 0 0 57.502-15.479c.864-23.031 19.59-41.436 42.579-41.436a42.04 42.04 0 0 1 20.181 5.133 250.797 250.797 0 0 0 41.973-41.988 43.262 43.262 0 0 1-4.744-19.754c-.001-23.211 18.147-42.127 40.881-43.051a254.17 254.17 0 0 0 15.314-57.25 43.165 43.165 0 0 1-19.5-36.193 43.162 43.162 0 0 1 19.542-36.223 250.719 250.719 0 0 0-15.344-57.199c-22.739-.917-40.896-19.837-40.897-43.049zm-85.022 324.841c-104.028 60.061-237.048 24.42-297.11-79.611-60.061-104.029-24.418-237.049 79.61-297.109 104.03-60.062 237.05-24.42 297.11 79.609 60.063 104.031 24.42 237.049-79.61 297.111z"/><path d="M-358.915 979.936l-123.219-71.137a75.484 75.484 0 0 0-9.078 9.077l71.143 123.223a74.821 74.821 0 0 0 24.472-8.916l.001-.002a75.823 75.823 0 0 0 15.501-11.867l.601-.605c10.847-11.008 17.915-24.693 20.579-39.773zm-71.542 67.166l-71.139-123.217a77.032 77.032 0 0 0-6.278 1.398 77.43 77.43 0 0 0-6.124 1.926l.001 142.287c14.481 5.264 29.958 5.957 45.007 1.982l.861-.232a75.831 75.831 0 0 0 17.711-7.406 74.853 74.853 0 0 0 19.961-16.738zm-140.25 24.447c14.936 3.891 30.324 3.172 44.723-2.062l.001-142.281a75.405 75.405 0 0 0-12.404-3.324l-71.143 123.223c9.912 11.803 22.973 20.145 37.996 24.229l.827.215zm-89.594-51.617l.611.605c11 10.842 24.684 17.91 39.764 20.574l71.141-123.217a76.227 76.227 0 0 0-4.349-4.736 76.042 76.042 0 0 0-4.73-4.344l-123.223 71.143c2.682 15.176 9.819 28.93 20.786 39.975zm93.099-133.928h-142.289c-5.265 14.484-5.959 29.965-1.983 45.016l.219.801c4.109 14.906 12.426 27.875 24.156 37.725l123.219-71.141a76.413 76.413 0 0 0-3.322-12.401zm3.317-24.381l-123.224-71.143c-11.808 9.916-20.149 22.979-24.229 38.006l-.204.77c-3.902 14.969-3.185 30.365 2.052 44.771h142.281a75.942 75.942 0 0 0 3.324-12.404zm-117.208-81.564l123.219 71.141a76.057 76.057 0 0 0 9.078-9.078l-71.142-123.223a74.845 74.845 0 0 0-24.475 8.92 75.796 75.796 0 0 0-15.515 11.881l-.578.582c-10.842 10.991-17.92 24.683-20.587 39.777zm71.543-67.149l71.137 123.219a76.798 76.798 0 0 0 6.28-1.398 75.678 75.678 0 0 0 6.124-1.926l.004-142.285c-14.495-5.268-29.981-5.959-45.035-1.979l-.741.201a75.86 75.86 0 0 0-17.808 7.432 74.837 74.837 0 0 0-19.961 16.736zm140.319-24.435c-14.974-3.912-30.382-3.197-44.798 2.045l-.001 142.281a76.185 76.185 0 0 0 6.131 1.926 76.774 76.774 0 0 0 6.271 1.398l71.145-123.225c-9.922-11.812-22.992-20.158-38.022-24.234l-.726-.191zm89.517 51.597l-.573-.57c-10.964-10.826-24.665-17.912-39.775-20.58l-71.14 123.219a77.08 77.08 0 0 0 4.35 4.736 77.027 77.027 0 0 0 4.731 4.342l123.222-71.143c-2.687-15.191-9.833-28.955-20.815-40.004zm51.184 88.881l-.192-.715c-4.099-14.922-12.421-27.912-24.171-37.781l-123.22 71.143a76.307 76.307 0 0 0 1.396 6.277 75.936 75.936 0 0 0 1.927 6.125h142.286c5.269-14.498 5.961-29.992 1.974-45.049zm-147.61 69.436l123.226 71.143c11.815-9.92 20.161-22.994 24.237-38.037l.17-.646c3.931-15.008 3.219-30.43-2.029-44.857l-142.28-.002a76.455 76.455 0 0 0-3.324 12.399z"/></g><g><g fill="none" stroke="#231F20" stroke-width="2" stroke-miterlimit="10"><path d="M337.655 122.124a30.682 30.682 0 0 1 6.849-12.626 177.722 177.722 0 0 0-20.975-36.468 29.81 29.81 0 0 1-14.786-.182c-15.732-4.215-25.174-20.243-21.545-36.162a180.033 180.033 0 0 0-36.546-21.118c-7.392 7.015-18.077 10.147-28.56 7.338-10.498-2.812-18.193-10.886-21.077-20.675a177.74 177.74 0 0 0-42.194.05c-4.814 15.604-21.008 24.765-36.741 20.549a29.813 29.813 0 0 1-12.872-7.213 177.713 177.713 0 0 0-36.429 21.041 30.675 30.675 0 0 1-.375 14.391c-4.257 15.886-20.149 25.504-35.876 21.967a180.063 180.063 0 0 0-20.976 36.361 30.585 30.585 0 0 1 6.707 28.347 30.584 30.584 0 0 1-20.021 21.208 177.684 177.684 0 0 0 .011 41.976c15.395 4.797 24.353 21.077 20.096 36.967a30.67 30.67 0 0 1-6.849 12.627 177.749 177.749 0 0 0 20.975 36.468 29.81 29.81 0 0 1 14.786.181c15.73 4.216 25.172 20.243 21.544 36.163a180.075 180.075 0 0 0 36.546 21.117c7.392-7.016 18.077-10.147 28.562-7.339 10.496 2.813 18.19 10.886 21.076 20.675a177.695 177.695 0 0 0 42.195-.049c4.815-15.604 21.007-24.767 36.741-20.55a29.799 29.799 0 0 1 12.872 7.213 177.686 177.686 0 0 0 36.428-21.041 30.671 30.671 0 0 1 .375-14.39c4.257-15.886 20.147-25.504 35.877-21.969a180.102 180.102 0 0 0 20.98-36.374 30.59 30.59 0 0 1-6.709-28.349 30.586 30.586 0 0 1 20.019-21.209 177.62 177.62 0 0 0-.012-41.962c-15.396-4.795-24.353-21.074-20.096-36.963zm-117.766 206.74c-82.216 22.029-166.724-26.759-188.754-108.977C9.104 137.672 57.896 53.165 140.111 31.136c82.218-22.03 166.725 26.76 188.754 108.976 22.031 82.216-26.759 166.722-108.976 188.752z"/><path d="M271.924 277.94l-71.29-71.286a53.586 53.586 0 0 0-7.879 4.547l26.095 97.385a53.054 53.054 0 0 0 18.385-1.615l.002-.001a53.746 53.746 0 0 0 12.786-5.279l.521-.304c9.443-5.543 16.791-13.614 21.38-23.447zm-61.284 32.851l-26.093-97.38a54.317 54.317 0 0 0-4.553-.194 54.148 54.148 0 0 0-4.545.195l-26.095 97.386c8.947 6.258 19.412 9.571 30.44 9.611l.633-.002a53.679 53.679 0 0 0 13.48-1.821 52.999 52.999 0 0 0 16.733-7.795zm-100.476-8.988c9.51 5.401 20.173 7.731 30.987 6.79l26.096-97.382a53.894 53.894 0 0 0-7.881-4.55l-71.29 71.292c4.618 9.896 12.028 18.001 21.562 23.55l.526.3zm-51.856-51.76l.308.527c5.54 9.438 13.609 16.784 23.443 21.373l71.289-71.287a54.366 54.366 0 0 0-2.108-4.039 53.838 53.838 0 0 0-2.441-3.84l-97.386 26.094c-.949 10.879 1.414 21.601 6.895 31.172zm88.282-74.591l-97.388-26.095c-6.26 8.949-9.574 19.417-9.613 30.447l.003.588c.078 10.957 3.393 21.358 9.615 30.25l97.382-26.094c.129-1.518.194-3.04.192-4.551a52.51 52.51 0 0 0-.191-4.545zm6.741-16.078L82.04 88.083c-9.9 4.621-18.006 12.032-23.554 21.569l-.28.489c-5.416 9.529-7.749 20.199-6.807 31.019l97.382 26.093a54.255 54.255 0 0 0 2.444-3.846 53.28 53.28 0 0 0 2.106-4.033zM88.068 82.053l71.289 71.289a53.577 53.577 0 0 0 7.879-4.548L141.141 51.41a53.018 53.018 0 0 0-18.386 1.616 53.784 53.784 0 0 0-12.799 5.286l-.501.292c-9.437 5.534-16.793 13.607-21.387 23.449zm61.283-32.839l26.092 97.381c1.522.129 3.046.194 4.554.194a54.12 54.12 0 0 0 4.544-.193l26.098-97.386c-8.955-6.263-19.427-9.577-30.461-9.613l-.544.002a53.79 53.79 0 0 0-13.552 1.821 53.05 53.05 0 0 0-16.731 7.794zm100.52 9.01c-9.531-5.423-20.209-7.76-31.037-6.816l-26.094 97.381a53.53 53.53 0 0 0 7.879 4.548l71.293-71.29c-4.625-9.905-12.04-18.014-21.58-23.561l-.461-.262zm51.807 51.732l-.288-.496c-5.519-9.42-13.598-16.783-23.448-21.38l-71.289 71.289a54.955 54.955 0 0 0 2.107 4.039 55.104 55.104 0 0 0 2.442 3.84l97.385-26.094c.947-10.891-1.419-21.623-6.909-31.198zm18.732 70.219l-.001-.523c-.069-10.965-3.383-21.382-9.614-30.292l-97.384 26.094a53.911 53.911 0 0 0-.196 4.555c.001 1.504.067 3.024.195 4.545l97.387 26.094c6.265-8.959 9.58-19.436 9.613-30.473zM206.646 200.63l71.293 71.291c9.907-4.624 18.017-12.042 23.564-21.591l.235-.41c5.443-9.551 7.783-20.236 6.839-31.075l-97.383-26.093a53.526 53.526 0 0 0-2.442 3.846 53.292 53.292 0 0 0-2.106 4.032z"/></g></g><g><defs><path id="a" d="M-700 0h180v360h-180z"/></defs><clipPath id="b"><use xlink:href="#a" overflow="visible"/></clipPath><path clip-path="url(#b)" fill="#2EBD2E" d="M-361.464 121.801a30.864 30.864 0 0 1 6.888-12.697 178.723 178.723 0 0 0-21.092-36.672 29.965 29.965 0 0 1-14.869-.183c-15.82-4.238-25.314-20.356-21.665-36.364a181.119 181.119 0 0 0-36.75-21.236c-7.433 7.055-18.179 10.205-28.72 7.38-10.557-2.829-18.295-10.946-21.195-20.79a178.72 178.72 0 0 0-42.43.05c-4.841 15.691-21.125 24.903-36.946 20.664a29.983 29.983 0 0 1-12.944-7.253 178.637 178.637 0 0 0-36.632 21.159 30.838 30.838 0 0 1-.377 14.47c-4.28 15.975-20.262 25.646-36.077 22.09a181.035 181.035 0 0 0-21.091 36.564 30.76 30.76 0 0 1 6.744 28.505 30.759 30.759 0 0 1-20.133 21.328 178.692 178.692 0 0 0 .011 42.209c15.481 4.824 24.489 21.195 20.208 37.173a30.82 30.82 0 0 1-6.887 12.698 178.673 178.673 0 0 0 21.091 36.672 29.987 29.987 0 0 1 14.869.182c15.819 4.239 25.313 20.355 21.667 36.364a181.01 181.01 0 0 0 36.749 21.236c7.433-7.055 18.178-10.205 28.72-7.38 10.555 2.829 18.294 10.945 21.194 20.791a178.781 178.781 0 0 0 42.431-.05c4.843-15.691 21.124-24.905 36.946-20.665a29.96 29.96 0 0 1 12.944 7.254 178.722 178.722 0 0 0 36.631-21.159 30.83 30.83 0 0 1 .378-14.471c4.28-15.974 20.26-25.646 36.076-22.09a181.099 181.099 0 0 0 21.099-36.579 30.756 30.756 0 0 1-6.747-28.506 30.755 30.755 0 0 1 20.131-21.327 178.583 178.583 0 0 0-.013-42.196c-15.481-4.824-24.489-21.194-20.209-37.171zM-479.89 329.696c-82.674 22.152-167.654-26.909-189.808-109.586-22.153-82.674 26.911-167.654 109.586-189.806 82.677-22.153 167.656 26.91 189.81 109.585 22.154 82.676-26.91 167.653-109.588 189.807z"/><g clip-path="url(#b)" fill="#D1EB00"><path d="M-427.562 278.487l-71.689-71.684a53.925 53.925 0 0 0-7.922 4.572l26.24 97.929a53.33 53.33 0 0 0 18.488-1.623v-.002a53.886 53.886 0 0 0 12.857-5.309l.525-.306c9.498-5.573 16.886-13.689 21.501-23.577zm-61.627 33.035l-26.237-97.925a53.9 53.9 0 0 0-9.149.001l-26.24 97.93c8.997 6.294 19.521 9.626 30.61 9.665l.637-.002a54.038 54.038 0 0 0 13.555-1.83 53.359 53.359 0 0 0 16.824-7.839zm-101.038-9.039c9.563 5.431 20.287 7.774 31.162 6.828l26.241-97.927a54.191 54.191 0 0 0-7.925-4.575l-71.689 71.689c4.645 9.952 12.096 18.101 21.683 23.682l.528.303zm-52.145-52.049l.309.53c5.571 9.491 13.686 16.879 23.574 21.493l71.687-71.686a54.21 54.21 0 0 0-4.575-7.924l-97.93 26.24c-.952 10.941 1.425 21.724 6.935 31.347zm88.775-75.007l-97.932-26.242c-6.295 8.999-9.628 19.526-9.667 30.617l.003.592c.079 11.018 3.412 21.477 9.669 30.419l97.926-26.239c.13-1.526.195-3.058.194-4.577a52.708 52.708 0 0 0-.193-4.57zm6.78-16.169l-71.69-71.689c-9.956 4.647-18.106 12.099-23.685 21.689l-.282.492c-5.446 9.582-7.792 20.311-6.844 31.192l97.926 26.239a54.066 54.066 0 0 0 4.575-7.923zm-65.628-77.752l71.688 71.687a53.82 53.82 0 0 0 7.923-4.574l-26.24-97.929a53.34 53.34 0 0 0-18.49 1.625 54.079 54.079 0 0 0-12.87 5.315l-.505.293c-9.489 5.567-16.887 13.686-21.506 23.583zm61.624-33.023l26.237 97.925a53.892 53.892 0 0 0 9.149 0l26.244-97.93c-9.005-6.298-19.536-9.63-30.631-9.666l-.546.001a54.053 54.053 0 0 0-13.627 1.831 53.411 53.411 0 0 0-16.826 7.839zm101.083 9.061c-9.584-5.454-20.321-7.804-31.21-6.855l-26.24 97.926c1.261.877 2.554 1.7 3.865 2.457a54.918 54.918 0 0 0 4.059 2.118l71.69-71.688c-4.651-9.96-12.107-18.114-21.7-23.691l-.464-.267zm52.096 52.02l-.29-.499c-5.548-9.473-13.672-16.876-23.58-21.5l-71.687 71.687a53.688 53.688 0 0 0 4.575 7.923l97.93-26.24c.954-10.951-1.427-21.742-6.948-31.371zm18.836 70.612l-.001-.527c-.068-11.026-3.401-21.501-9.667-30.461l-97.929 26.239a54.082 54.082 0 0 0-.196 4.58c0 1.513.066 3.042.196 4.57l97.931 26.24c6.3-9.007 9.634-19.543 9.666-30.641zm-114.399 20.568l71.691 71.689c9.962-4.649 18.117-12.108 23.696-21.71l.236-.413c5.474-9.604 7.828-20.35 6.877-31.249l-97.926-26.238a53.782 53.782 0 0 0-4.574 7.921z"/></g><defs><path id="c" d="M-520 0h180v360h-180z"/></defs><clipPath id="d"><use xlink:href="#c" overflow="visible"/></clipPath><path clip-path="url(#d)" fill="#32CD32" d="M-361.464 121.801a30.864 30.864 0 0 1 6.888-12.697 178.723 178.723 0 0 0-21.092-36.672 29.965 29.965 0 0 1-14.869-.183c-15.82-4.238-25.314-20.356-21.665-36.364a181.119 181.119 0 0 0-36.75-21.236c-7.433 7.055-18.179 10.205-28.72 7.38-10.557-2.829-18.295-10.946-21.195-20.79a178.72 178.72 0 0 0-42.43.05c-4.841 15.691-21.125 24.903-36.946 20.664a29.983 29.983 0 0 1-12.944-7.253 178.637 178.637 0 0 0-36.632 21.159 30.838 30.838 0 0 1-.377 14.47c-4.28 15.975-20.262 25.646-36.077 22.09a181.035 181.035 0 0 0-21.091 36.564 30.76 30.76 0 0 1 6.744 28.505 30.759 30.759 0 0 1-20.133 21.328 178.692 178.692 0 0 0 .011 42.209c15.481 4.824 24.489 21.195 20.208 37.173a30.82 30.82 0 0 1-6.887 12.698 178.673 178.673 0 0 0 21.091 36.672 29.987 29.987 0 0 1 14.869.182c15.819 4.239 25.313 20.355 21.667 36.364a181.01 181.01 0 0 0 36.749 21.236c7.433-7.055 18.178-10.205 28.72-7.38 10.555 2.829 18.294 10.945 21.194 20.791a178.781 178.781 0 0 0 42.431-.05c4.843-15.691 21.124-24.905 36.946-20.665a29.96 29.96 0 0 1 12.944 7.254 178.722 178.722 0 0 0 36.631-21.159 30.83 30.83 0 0 1 .378-14.471c4.28-15.974 20.26-25.646 36.076-22.09a181.099 181.099 0 0 0 21.099-36.579 30.756 30.756 0 0 1-6.747-28.506 30.755 30.755 0 0 1 20.131-21.327 178.583 178.583 0 0 0-.013-42.196c-15.481-4.824-24.489-21.194-20.209-37.171zM-479.89 329.696c-82.674 22.152-167.654-26.909-189.808-109.586-22.153-82.674 26.911-167.654 109.586-189.806 82.677-22.153 167.656 26.91 189.81 109.585 22.154 82.676-26.91 167.653-109.588 189.807z"/><g clip-path="url(#d)" fill="#E3FF00"><path d="M-427.562 278.487l-71.689-71.684a53.925 53.925 0 0 0-7.922 4.572l26.24 97.929a53.33 53.33 0 0 0 18.488-1.623v-.002a53.886 53.886 0 0 0 12.857-5.309l.525-.306c9.498-5.573 16.886-13.689 21.501-23.577zm-61.627 33.035l-26.237-97.925a53.9 53.9 0 0 0-9.149.001l-26.24 97.93c8.997 6.294 19.521 9.626 30.61 9.665l.637-.002a54.038 54.038 0 0 0 13.555-1.83 53.359 53.359 0 0 0 16.824-7.839zm-101.038-9.039c9.563 5.431 20.287 7.774 31.162 6.828l26.241-97.927a54.191 54.191 0 0 0-7.925-4.575l-71.689 71.689c4.645 9.952 12.096 18.101 21.683 23.682l.528.303zm-52.145-52.049l.309.53c5.571 9.491 13.686 16.879 23.574 21.493l71.687-71.686a54.21 54.21 0 0 0-4.575-7.924l-97.93 26.24c-.952 10.941 1.425 21.724 6.935 31.347zm88.775-75.007l-97.932-26.242c-6.295 8.999-9.628 19.526-9.667 30.617l.003.592c.079 11.018 3.412 21.477 9.669 30.419l97.926-26.239c.13-1.526.195-3.058.194-4.577a52.708 52.708 0 0 0-.193-4.57zm6.78-16.169l-71.69-71.689c-9.956 4.647-18.106 12.099-23.685 21.689l-.282.492c-5.446 9.582-7.792 20.311-6.844 31.192l97.926 26.239a54.066 54.066 0 0 0 4.575-7.923zm-65.628-77.752l71.688 71.687a53.82 53.82 0 0 0 7.923-4.574l-26.24-97.929a53.34 53.34 0 0 0-18.49 1.625 54.079 54.079 0 0 0-12.87 5.315l-.505.293c-9.489 5.567-16.887 13.686-21.506 23.583zm61.624-33.023l26.237 97.925a53.892 53.892 0 0 0 9.149 0l26.244-97.93c-9.005-6.298-19.536-9.63-30.631-9.666l-.546.001a54.053 54.053 0 0 0-13.627 1.831 53.411 53.411 0 0 0-16.826 7.839zm101.083 9.061c-9.584-5.454-20.321-7.804-31.21-6.855l-26.24 97.926c1.261.877 2.554 1.7 3.865 2.457a54.918 54.918 0 0 0 4.059 2.118l71.69-71.688c-4.651-9.96-12.107-18.114-21.7-23.691l-.464-.267zm52.096 52.02l-.29-.499c-5.548-9.473-13.672-16.876-23.58-21.5l-71.687 71.687a53.688 53.688 0 0 0 4.575 7.923l97.93-26.24c.954-10.951-1.427-21.742-6.948-31.371zm18.836 70.612l-.001-.527c-.068-11.026-3.401-21.501-9.667-30.461l-97.929 26.239a54.082 54.082 0 0 0-.196 4.58c0 1.513.066 3.042.196 4.57l97.931 26.24c6.3-9.007 9.634-19.543 9.666-30.641zm-114.399 20.568l71.691 71.689c9.962-4.649 18.117-12.108 23.696-21.71l.236-.413c5.474-9.604 7.828-20.35 6.877-31.249l-97.926-26.238a53.782 53.782 0 0 0-4.574 7.921z"/></g></g></svg>