<svg xmlns="http://www.w3.org/2000/svg" xmlns:xlink="http://www.w3.org/1999/xlink" width="360" height="360" viewBox="0 0 360 360"><path fill="#E3FF00" d="M580.002 1280h600v600h-600z"/><path d="M1102.494 1498.32a43.267 43.267 0 0 1 9.664-17.816 250.692 250.692 0 0 0-29.6-51.469 42.09 42.09 0 0 1-20.867-.256c-22.203-5.949-35.527-28.568-30.406-51.035a254.072 254.072 0 0 0-51.574-29.803c-10.432 9.9-25.514 14.32-40.307 10.355-14.816-3.969-25.676-15.361-29.746-29.178a250.846 250.846 0 0 0-59.547.07c-6.795 22.021-29.646 34.951-51.852 29.002a42.07 42.07 0 0 1-18.166-10.18 250.633 250.633 0 0 0-51.41 29.695 43.279 43.279 0 0 1-.529 20.309c-6.008 22.418-28.436 35.992-50.631 31a254.141 254.141 0 0 0-29.602 51.316 43.165 43.165 0 0 1 9.465 40.006 43.166 43.166 0 0 1-28.256 29.932 250.721 250.721 0 0 0 .016 59.24c21.727 6.77 34.367 29.744 28.361 52.17a43.31 43.31 0 0 1-9.666 17.82 250.859 250.859 0 0 0 29.6 51.465 42.067 42.067 0 0 1 20.867.256c22.199 5.949 35.525 28.568 30.406 51.035a254.018 254.018 0 0 0 51.574 29.803c10.432-9.9 25.512-14.32 40.309-10.355 14.812 3.969 25.672 15.361 29.744 29.178a250.758 250.758 0 0 0 59.549-.07c6.795-22.021 29.646-34.953 51.852-29.002a42.063 42.063 0 0 1 18.164 10.18 250.633 250.633 0 0 0 51.41-29.695 43.27 43.27 0 0 1 .531-20.307c6.006-22.42 28.432-35.994 50.629-31.004a254.203 254.203 0 0 0 29.609-51.334 43.167 43.167 0 0 1-9.467-40.008 43.169 43.169 0 0 1 28.252-29.932 250.775 250.775 0 0 0-.018-59.221c-21.725-6.768-34.366-29.743-28.358-52.167zm-166.201 291.77c-116.027 31.09-235.291-37.766-266.383-153.797-31.09-116.029 37.77-235.291 153.797-266.381 116.031-31.092 235.291 37.766 266.383 153.795 31.09 116.031-37.766 235.291-153.797 266.383z"/><path d="M1009.73 1718.221l-100.611-100.604a75.85 75.85 0 0 0-11.117 6.418l36.826 137.438a74.863 74.863 0 0 0 25.945-2.281h.002a75.859 75.859 0 0 0 18.045-7.451l.736-.428c13.327-7.825 23.698-19.213 30.174-33.092zm-86.49 46.363l-36.824-137.432a76.848 76.848 0 0 0-6.424-.275 77.197 77.197 0 0 0-6.416.275l-36.824 137.439c12.625 8.832 27.395 13.508 42.959 13.564l.893-.002a75.795 75.795 0 0 0 19.023-2.57 74.79 74.79 0 0 0 23.613-10.999zm-141.797-12.688c13.42 7.623 28.469 10.912 43.73 9.584l36.828-137.434a76.547 76.547 0 0 0-5.426-3.447 76.57 76.57 0 0 0-5.695-2.975l-100.61 100.614c6.52 13.965 16.977 25.404 30.43 33.234l.743.424zm-73.183-73.046l.434.744c7.82 13.32 19.207 23.688 33.086 30.164l100.607-100.605a76.326 76.326 0 0 0-2.975-5.701 77.225 77.225 0 0 0-3.445-5.42l-137.439 36.826c-1.337 15.353 1.999 30.484 9.732 43.992zm124.59-105.268l-137.439-36.828c-8.836 12.629-13.514 27.402-13.568 42.971l.004.83c.111 15.461 4.789 30.141 13.57 42.691l137.432-36.824a76.08 76.08 0 0 0 .001-12.84zm9.513-22.691L741.752 1450.28c-13.971 6.521-25.41 16.98-33.24 30.439l-.395.691c-7.645 13.447-10.936 28.506-9.607 43.775l137.432 36.826a75.538 75.538 0 0 0 6.421-11.12zM750.26 1441.77l100.609 100.609a75.71 75.71 0 0 0 5.697-2.977 75.704 75.704 0 0 0 5.422-3.443l-36.826-137.438a74.89 74.89 0 0 0-25.949 2.281 75.82 75.82 0 0 0-18.061 7.461l-.709.412c-13.318 7.811-23.701 19.206-30.183 33.095zm86.486-46.344l36.822 137.432c2.148.182 4.299.273 6.428.273 2.125 0 4.271-.092 6.412-.273l36.83-137.438c-12.639-8.838-27.418-13.516-42.988-13.566l-.768.002a75.93 75.93 0 0 0-19.125 2.57 74.842 74.842 0 0 0-23.611 11zm141.861 12.715c-13.451-7.654-28.52-10.953-43.801-9.621l-36.826 137.434a75.894 75.894 0 0 0 11.119 6.42l100.611-100.609c-6.525-13.98-16.99-25.424-30.453-33.252l-.65-.372zm73.112 73.007l-.404-.699c-7.789-13.295-19.189-23.686-33.094-30.174l-100.607 100.607c.916 1.947 1.91 3.855 2.977 5.701s2.221 3.658 3.445 5.418l137.438-36.824c1.335-15.37-2.007-30.515-9.755-44.029zm26.437 99.1l-.002-.74c-.096-15.475-4.773-30.176-13.568-42.75l-137.434 36.826a75.257 75.257 0 0 0-.002 12.84l137.439 36.828c8.843-12.643 13.52-27.43 13.567-43.004zm-160.551 28.865l100.613 100.613c13.98-6.525 25.426-16.996 33.256-30.471l.332-.578c7.68-13.48 10.984-28.561 9.648-43.855l-137.432-36.826a76.79 76.79 0 0 0-3.447 5.428 77.624 77.624 0 0 0-2.97 5.689zM-120 1280h600v600h-600z"/><g fill="#E3FF00"><path d="M373.775 1443.519a43.287 43.287 0 0 1 4.724-19.714 250.874 250.874 0 0 0-41.912-42.052 42.057 42.057 0 0 1-20.223 5.152c-22.986.001-41.711-18.399-42.579-41.425a254.059 254.059 0 0 0-57.531-15.439c-7.514 12.264-20.937 20.436-36.252 20.436-15.338 0-28.777-8.194-36.284-20.485a250.808 250.808 0 0 0-57.5 15.479c-.863 23.03-19.59 41.434-42.578 41.435a42.077 42.077 0 0 1-20.182-5.132 250.766 250.766 0 0 0-41.974 41.988 43.279 43.279 0 0 1 4.746 19.754c0 23.21-18.152 42.127-40.883 43.049a254.097 254.097 0 0 0-15.31 57.229 43.173 43.173 0 0 1 19.497 36.193 43.168 43.168 0 0 1-19.547 36.225 250.834 250.834 0 0 0 15.347 57.217c22.738.916 40.896 19.836 40.897 43.052a43.285 43.285 0 0 1-4.724 19.715 250.831 250.831 0 0 0 41.911 42.052 42.08 42.08 0 0 1 20.222-5.154c22.984.001 41.708 18.4 42.58 41.427a254.043 254.043 0 0 0 57.531 15.438c7.513-12.263 20.937-20.436 36.253-20.436 15.335 0 28.775 8.193 36.283 20.485a250.867 250.867 0 0 0 57.501-15.479c.865-23.03 19.591-41.435 42.58-41.435a42.053 42.053 0 0 1 20.181 5.132 250.728 250.728 0 0 0 41.973-41.989 43.253 43.253 0 0 1-4.744-19.752c-.001-23.211 18.147-42.127 40.881-43.052a254.174 254.174 0 0 0 15.313-57.249 43.169 43.169 0 0 1-19.499-36.194 43.162 43.162 0 0 1 19.542-36.224 250.733 250.733 0 0 0-15.345-57.197c-22.738-.917-40.894-19.837-40.895-43.05zm-85.022 324.841c-104.028 60.061-237.049 24.42-297.111-79.61-60.061-104.029-24.418-237.05 79.611-297.111 104.03-60.062 237.049-24.418 297.11 79.611 60.063 104.029 24.42 237.048-79.61 297.11z"/><path d="M341.086 1679.935l-123.22-71.136a76.523 76.523 0 0 0-4.734 4.347 76.385 76.385 0 0 0-4.344 4.729l71.143 123.223a74.851 74.851 0 0 0 24.473-8.917l.001-.001a75.828 75.828 0 0 0 15.501-11.868l.601-.604c10.847-11.008 17.915-24.692 20.579-39.773zm-71.542 67.167l-71.139-123.217a76.935 76.935 0 0 0-6.278 1.397 77.708 77.708 0 0 0-6.124 1.925v142.288c14.482 5.264 29.959 5.958 45.007 1.983l.861-.233a75.778 75.778 0 0 0 17.712-7.406 74.862 74.862 0 0 0 19.961-16.737zm-140.25 24.447c14.936 3.89 30.324 3.17 44.723-2.062l.001-142.282a75.813 75.813 0 0 0-12.404-3.325l-71.142 123.225c9.912 11.803 22.972 20.145 37.996 24.228l.826.216zM39.7 1719.931l.611.606c11 10.842 24.683 17.909 39.764 20.573l71.141-123.218a75.882 75.882 0 0 0-9.079-9.079l-123.223 71.143c2.682 15.177 9.819 28.93 20.786 39.975zm93.098-133.927l-142.289-.001c-5.266 14.485-5.959 29.966-1.984 45.017l.219.801c4.109 14.906 12.427 27.875 24.156 37.725l123.219-71.141a76.025 76.025 0 0 0-3.321-12.401zm3.317-24.381L12.891 1490.48c-11.807 9.915-20.149 22.979-24.228 38.005l-.204.771c-3.902 14.967-3.185 30.365 2.052 44.77l142.28.002a76.675 76.675 0 0 0 1.927-6.137 76.145 76.145 0 0 0 1.397-6.268zm-117.207-81.564l123.219 71.141a75.838 75.838 0 0 0 9.078-9.078l-71.141-123.224a74.882 74.882 0 0 0-24.475 8.92 75.8 75.8 0 0 0-15.515 11.882l-.578.581c-10.844 10.991-17.921 24.684-20.588 39.778zm71.543-67.15l71.137 123.218a75.536 75.536 0 0 0 12.404-3.322l.004-142.286c-14.495-5.269-29.981-5.96-45.035-1.979l-.74.2a75.973 75.973 0 0 0-17.808 7.433 74.844 74.844 0 0 0-19.962 16.736zm140.319-24.434c-14.974-3.912-30.383-3.198-44.798 2.043l-.001 142.282a76.185 76.185 0 0 0 6.131 1.926 75.943 75.943 0 0 0 6.271 1.397l71.144-123.224c-9.922-11.812-22.991-20.157-38.021-24.234l-.726-.19zm89.516 51.597l-.573-.57c-10.963-10.827-24.665-17.912-39.774-20.581l-71.141 123.219a77.122 77.122 0 0 0 4.351 4.736 77.01 77.01 0 0 0 4.73 4.342l123.223-71.142c-2.687-15.192-9.833-28.956-20.816-40.004zm51.185 88.879l-.193-.713c-4.099-14.922-12.421-27.912-24.17-37.781l-123.22 71.142a76.012 76.012 0 0 0 1.396 6.278 76.584 76.584 0 0 0 1.926 6.125h142.287c5.269-14.5 5.961-29.993 1.974-45.051zm-147.61 69.438l123.225 71.143c11.816-9.921 20.162-22.996 24.238-38.039l.17-.645c3.931-15.009 3.219-30.43-2.029-44.859h-142.28a75.928 75.928 0 0 0-3.324 12.4z"/></g><path fill="#32CD32" d="M580.002 580.002h600v600h-600z"/><g fill="#FFF"><path d="M1102.496 798.322a43.279 43.279 0 0 1 9.665-17.817 250.78 250.78 0 0 0-29.601-51.468 42.09 42.09 0 0 1-20.867-.256c-22.203-5.949-35.527-28.569-30.406-51.035a254.104 254.104 0 0 0-51.575-29.804c-10.432 9.9-25.512 14.321-40.306 10.356-14.815-3.969-25.676-15.362-29.746-29.178a250.846 250.846 0 0 0-59.547.07c-6.795 22.021-29.647 34.95-51.852 29.001a42.064 42.064 0 0 1-18.166-10.179 250.728 250.728 0 0 0-51.41 29.694 43.292 43.292 0 0 1-.529 20.309c-6.008 22.419-28.437 35.993-50.631 31.001a254.169 254.169 0 0 0-29.602 51.316 43.165 43.165 0 0 1 9.465 40.006 43.168 43.168 0 0 1-28.256 29.932 250.774 250.774 0 0 0 .016 59.24c21.726 6.77 34.367 29.744 28.36 52.169a43.285 43.285 0 0 1-9.665 17.82 250.814 250.814 0 0 0 29.6 51.466 42.066 42.066 0 0 1 20.867.256c22.2 5.949 35.525 28.568 30.406 51.035a253.999 253.999 0 0 0 51.575 29.803c10.431-9.9 25.511-14.32 40.307-10.356 14.813 3.97 25.673 15.362 29.744 29.178a250.81 250.81 0 0 0 59.549-.069c6.796-22.021 29.646-34.952 51.853-29.002a42.058 42.058 0 0 1 18.165 10.18 250.8 250.8 0 0 0 51.41-29.694 43.274 43.274 0 0 1 .529-20.308c6.007-22.42 28.433-35.994 50.631-31.004a254.183 254.183 0 0 0 29.609-51.335 43.169 43.169 0 0 1-9.468-40.008 43.164 43.164 0 0 1 28.252-29.931 250.775 250.775 0 0 0-.018-59.221c-21.725-6.769-34.366-29.743-28.358-52.167zm-166.201 291.769c-116.027 31.09-235.291-37.765-266.382-153.796-31.09-116.029 37.768-235.292 153.796-266.382 116.031-31.091 235.292 37.767 266.382 153.796 31.091 116.031-37.765 235.291-153.796 266.382z"/><path d="M1009.731 1018.223L909.122 917.619a75.775 75.775 0 0 0-11.118 6.418l36.826 137.437a74.843 74.843 0 0 0 25.946-2.279l.001-.001a75.834 75.834 0 0 0 18.045-7.451l.736-.429c13.328-7.825 23.697-19.213 30.173-33.091zm-86.488 46.362l-36.824-137.431a76.462 76.462 0 0 0-6.425-.274 77.152 77.152 0 0 0-6.415.274l-36.825 137.439c12.626 8.832 27.396 13.509 42.958 13.564l.894-.003a75.808 75.808 0 0 0 19.024-2.569 74.801 74.801 0 0 0 23.613-11zm-141.799-12.687c13.421 7.624 28.47 10.912 43.732 9.584l36.827-137.434a76.196 76.196 0 0 0-11.121-6.422l-100.61 100.612c6.52 13.966 16.976 25.404 30.43 33.235l.742.425zm-73.181-73.046l.433.744c7.819 13.319 19.207 23.688 33.085 30.164l100.608-100.606a76.707 76.707 0 0 0-2.976-5.7 76.979 76.979 0 0 0-3.444-5.42L698.53 934.859c-1.337 15.354 1.998 30.486 9.733 43.993zm124.589-105.268l-137.439-36.828c-8.835 12.629-13.513 27.402-13.567 42.97l.004.83c.111 15.462 4.788 30.142 13.57 42.691l137.431-36.824c.183-2.144.274-4.292.272-6.425a75.448 75.448 0 0 0-.271-6.414zm9.514-22.692l-100.612-100.61c-13.972 6.521-25.41 16.98-33.239 30.439l-.396.69c-7.644 13.447-10.935 28.506-9.605 43.776l137.432 36.825a76.194 76.194 0 0 0 3.449-5.428 76.647 76.647 0 0 0 2.971-5.692zm-92.103-109.121L850.871 842.38a75.814 75.814 0 0 0 11.118-6.419l-36.825-137.438a74.88 74.88 0 0 0-25.948 2.281 75.893 75.893 0 0 0-18.062 7.461l-.709.412c-13.318 7.811-23.7 19.205-30.182 33.094zm86.485-46.343l36.821 137.431a75.872 75.872 0 0 0 12.842.002l36.829-137.438c-12.638-8.839-27.417-13.516-42.988-13.566l-.767.002a75.932 75.932 0 0 0-19.126 2.57 74.785 74.785 0 0 0-23.611 10.999zm141.861 12.714c-13.451-7.653-28.52-10.952-43.801-9.62l-36.826 137.434a76.104 76.104 0 0 0 5.424 3.446 76.226 76.226 0 0 0 5.695 2.973l100.612-100.609c-6.526-13.979-16.991-25.423-30.454-33.251l-.65-.373zm73.113 73.008l-.406-.7c-7.787-13.295-19.188-23.685-33.093-30.173L917.616 850.885a76.164 76.164 0 0 0 2.975 5.701 76.839 76.839 0 0 0 3.446 5.418l137.437-36.824c1.337-15.371-2.004-30.516-9.752-44.03zm26.436 99.099l-.002-.739c-.097-15.474-4.773-30.176-13.568-42.75l-137.434 36.825a75.718 75.718 0 0 0-.276 6.428 76.83 76.83 0 0 0 .275 6.414l137.438 36.826c8.844-12.642 13.521-27.428 13.567-43.004zm-160.552 28.866l100.613 100.613c13.981-6.526 25.427-16.996 33.257-30.471l.331-.579c7.682-13.479 10.985-28.56 9.65-43.854l-137.432-36.826a75.852 75.852 0 0 0-6.419 11.117z"/></g><path fill="#FFF" d="M-120 580h600v600h-600z"/><g fill="#32CD32"><path d="M373.774 743.52a43.283 43.283 0 0 1 4.725-19.715 250.873 250.873 0 0 0-41.913-42.051 42.065 42.065 0 0 1-20.223 5.152c-22.986.002-41.711-18.4-42.579-41.426a254.163 254.163 0 0 0-57.531-15.439c-7.514 12.264-20.937 20.438-36.252 20.436-15.337.002-28.777-8.193-36.284-20.484a250.76 250.76 0 0 0-57.5 15.48c-.863 23.029-19.591 41.434-42.579 41.434a42.066 42.066 0 0 1-20.182-5.133 250.76 250.76 0 0 0-41.973 41.988 43.297 43.297 0 0 1 4.746 19.756c0 23.209-18.151 42.125-40.882 43.049a254.057 254.057 0 0 0-15.311 57.229 43.173 43.173 0 0 1 19.497 36.193 43.169 43.169 0 0 1-19.546 36.225 250.782 250.782 0 0 0 15.347 57.217c22.738.916 40.896 19.836 40.897 43.051a43.288 43.288 0 0 1-4.723 19.715 250.8 250.8 0 0 0 41.911 42.053 42.072 42.072 0 0 1 20.223-5.154c22.984 0 41.708 18.4 42.579 41.426a253.94 253.94 0 0 0 57.531 15.439c7.513-12.264 20.937-20.436 36.253-20.436 15.335 0 28.774 8.193 36.282 20.484a250.824 250.824 0 0 0 57.502-15.479c.864-23.031 19.59-41.436 42.579-41.436a42.04 42.04 0 0 1 20.181 5.133 250.797 250.797 0 0 0 41.973-41.988 43.262 43.262 0 0 1-4.744-19.754c-.001-23.211 18.147-42.127 40.881-43.051a254.17 254.17 0 0 0 15.314-57.25 43.165 43.165 0 0 1-19.5-36.193 43.162 43.162 0 0 1 19.542-36.223 250.719 250.719 0 0 0-15.344-57.199c-22.739-.917-40.896-19.837-40.897-43.049zm-85.022 324.841c-104.028 60.061-237.048 24.42-297.11-79.611-60.061-104.029-24.418-237.049 79.61-297.109 104.03-60.062 237.05-24.42 297.11 79.609 60.063 104.031 24.42 237.049-79.61 297.111z"/><path d="M341.085 979.936l-123.219-71.137a75.484 75.484 0 0 0-9.078 9.077l71.143 123.223a74.821 74.821 0 0 0 24.472-8.916l.001-.002a75.823 75.823 0 0 0 15.501-11.867l.601-.605c10.847-11.008 17.915-24.693 20.579-39.773zm-71.542 67.166l-71.139-123.217a77.032 77.032 0 0 0-6.278 1.398 77.43 77.43 0 0 0-6.124 1.926l.001 142.287c14.481 5.264 29.958 5.957 45.007 1.982l.861-.232a75.831 75.831 0 0 0 17.711-7.406 74.853 74.853 0 0 0 19.961-16.738zm-140.25 24.447c14.936 3.891 30.324 3.172 44.723-2.062l.001-142.281a75.405 75.405 0 0 0-12.404-3.324L90.47 1047.105c9.912 11.803 22.973 20.145 37.996 24.229l.827.215zm-89.594-51.617l.611.605c11 10.842 24.684 17.91 39.764 20.574l71.141-123.217a76.227 76.227 0 0 0-4.349-4.736 76.042 76.042 0 0 0-4.73-4.344L18.913 979.957c2.682 15.176 9.819 28.93 20.786 39.975zm93.099-133.928H-9.491c-5.265 14.484-5.959 29.965-1.983 45.016l.219.801c4.109 14.906 12.426 27.875 24.156 37.725l123.219-71.141a76.413 76.413 0 0 0-3.322-12.401zm3.317-24.381L12.891 790.48c-11.808 9.916-20.149 22.979-24.229 38.006l-.204.77c-3.902 14.969-3.185 30.365 2.052 44.771h142.281a75.942 75.942 0 0 0 3.324-12.404zM18.907 780.059L142.126 851.2a76.057 76.057 0 0 0 9.078-9.078L80.063 718.898a74.845 74.845 0 0 0-24.475 8.92 75.796 75.796 0 0 0-15.515 11.881l-.578.582c-10.843 10.992-17.921 24.684-20.588 39.778zM90.45 712.91l71.137 123.219a76.798 76.798 0 0 0 6.28-1.398 75.678 75.678 0 0 0 6.124-1.926l.004-142.285c-14.495-5.268-29.981-5.959-45.035-1.979l-.741.201a75.86 75.86 0 0 0-17.808 7.432A74.837 74.837 0 0 0 90.45 712.91zm140.319-24.435c-14.974-3.912-30.382-3.197-44.798 2.045l-.001 142.281a76.185 76.185 0 0 0 6.131 1.926 76.774 76.774 0 0 0 6.271 1.398L269.516 712.9c-9.922-11.812-22.992-20.158-38.022-24.234l-.725-.191zm89.517 51.597l-.573-.57c-10.964-10.826-24.665-17.912-39.775-20.58l-71.14 123.219a77.08 77.08 0 0 0 4.35 4.736 77.027 77.027 0 0 0 4.731 4.342l123.222-71.143c-2.687-15.191-9.833-28.955-20.815-40.004zm51.184 88.881l-.192-.715c-4.099-14.922-12.421-27.912-24.171-37.781L223.887 861.6a76.307 76.307 0 0 0 1.396 6.277 75.936 75.936 0 0 0 1.927 6.125h142.286c5.269-14.498 5.961-29.992 1.974-45.049zm-147.61 69.436l123.226 71.143c11.815-9.92 20.161-22.994 24.237-38.037l.17-.646c3.931-15.008 3.219-30.43-2.029-44.857l-142.28-.002a76.455 76.455 0 0 0-3.324 12.399z"/></g><g><path fill="#FFF" d="M580-120h600v600H580z"/><g fill="none" stroke="#231F20" stroke-width="2" stroke-miterlimit="10"><path d="M1102.494 98.321a43.293 43.293 0 0 1 9.665-17.819 250.798 250.798 0 0 0-29.601-51.467 42.055 42.055 0 0 1-20.867-.257c-22.203-5.948-35.527-28.568-30.406-51.035A254.08 254.08 0 0 0 979.71-52.06c-10.432 9.901-25.513 14.321-40.306 10.357-14.815-3.969-25.676-15.363-29.746-29.178a250.794 250.794 0 0 0-59.547.071c-6.795 22.021-29.647 34.95-51.852 29.001a42.06 42.06 0 0 1-18.166-10.18 250.823 250.823 0 0 0-51.41 29.695 43.304 43.304 0 0 1-.529 20.309c-6.008 22.419-28.437 35.993-50.631 31.001a254.114 254.114 0 0 0-29.602 51.316 43.163 43.163 0 0 1 9.465 40.005 43.167 43.167 0 0 1-28.256 29.932 250.774 250.774 0 0 0 .016 59.24c21.726 6.77 34.367 29.745 28.36 52.17a43.285 43.285 0 0 1-9.665 17.82 250.814 250.814 0 0 0 29.6 51.466 42.066 42.066 0 0 1 20.867.256c22.2 5.949 35.525 28.568 30.405 51.035a254.033 254.033 0 0 0 51.576 29.803c10.431-9.9 25.511-14.32 40.307-10.356 14.813 3.97 25.673 15.362 29.744 29.178a250.81 250.81 0 0 0 59.549-.069c6.796-22.021 29.646-34.952 51.853-29.002a42.058 42.058 0 0 1 18.165 10.18 250.8 250.8 0 0 0 51.41-29.694 43.26 43.26 0 0 1 .529-20.308c6.007-22.42 28.433-35.994 50.631-31.004a254.183 254.183 0 0 0 29.609-51.335 43.168 43.168 0 0 1-9.468-40.008 43.164 43.164 0 0 1 28.252-29.931 250.766 250.766 0 0 0-.018-59.22c-21.725-6.772-34.366-29.746-28.358-52.169zM936.293 390.089c-116.028 31.09-235.291-37.765-266.382-153.796-31.09-116.029 37.768-235.292 153.796-266.382 116.03-31.09 235.292 37.767 266.382 153.796 31.091 116.03-37.765 235.291-153.796 266.382z"/><path d="M1009.729 318.221l-100.61-100.604a75.775 75.775 0 0 0-11.118 6.418l36.826 137.437a74.841 74.841 0 0 0 25.946-2.279l.002-.001a75.834 75.834 0 0 0 18.045-7.451l.735-.429c13.328-7.825 23.698-19.213 30.174-33.091zm-86.488 46.362l-36.824-137.431a76.498 76.498 0 0 0-6.425-.274 76.707 76.707 0 0 0-6.415.275l-36.826 137.438c12.627 8.832 27.396 13.509 42.959 13.564l.894-.003a75.815 75.815 0 0 0 19.024-2.569 74.801 74.801 0 0 0 23.613-11zm-141.799-12.686c13.421 7.623 28.47 10.911 43.732 9.583l36.827-137.434a76.37 76.37 0 0 0-11.121-6.422L750.27 318.236c6.519 13.966 16.976 25.404 30.43 33.236l.742.425zM708.26 278.85l.434.744c7.819 13.319 19.207 23.688 33.085 30.164l100.608-100.606a76.866 76.866 0 0 0-2.976-5.699 76.177 76.177 0 0 0-3.445-5.42l-137.438 36.825c-1.338 15.353 1.997 30.485 9.732 43.992zm124.59-105.268l-137.44-36.828c-8.835 12.629-13.513 27.403-13.567 42.97l.004.83c.11 15.462 4.788 30.142 13.57 42.691l137.431-36.825c.183-2.143.274-4.291.272-6.423a75.04 75.04 0 0 0-.27-6.415zm9.513-22.691L741.752 50.279c-13.972 6.522-25.41 16.981-33.24 30.44l-.396.69c-7.644 13.448-10.936 28.506-9.606 43.776l137.433 36.825a75.876 75.876 0 0 0 6.42-11.119zM750.26 41.77l100.608 100.608a76.2 76.2 0 0 0 11.119-6.419L825.161-1.478A74.836 74.836 0 0 0 799.213.803a75.907 75.907 0 0 0-18.062 7.46l-.708.412c-13.319 7.811-23.7 19.205-30.183 33.095zm86.485-46.345l36.822 137.431c2.149.182 4.3.274 6.427.274s4.272-.092 6.413-.273L923.237-4.58c-12.638-8.839-27.416-13.516-42.987-13.566l-.768.002a75.886 75.886 0 0 0-19.126 2.57 74.851 74.851 0 0 0-23.611 10.999zM978.607 8.14C965.155.487 950.086-2.812 934.805-1.48L897.98 135.953a75.765 75.765 0 0 0 11.118 6.42l100.613-100.61c-6.526-13.979-16.991-25.422-30.454-33.25l-.65-.373zm73.113 73.008l-.406-.699c-7.788-13.295-19.19-23.685-33.093-30.173L917.613 150.883a77.315 77.315 0 0 0 2.975 5.701 77.825 77.825 0 0 0 3.446 5.419l137.437-36.826c1.337-15.37-2.003-30.515-9.751-44.029zm26.436 99.099l-.002-.739c-.097-15.474-4.773-30.176-13.568-42.75l-137.435 36.826a76.111 76.111 0 0 0-.276 6.427 77.26 77.26 0 0 0 .275 6.414l137.439 36.826c8.843-12.642 13.52-27.428 13.567-43.004zm-160.552 28.867l100.613 100.612c13.982-6.526 25.427-16.995 33.257-30.471l.332-.579c7.682-13.479 10.984-28.56 9.65-43.855l-137.433-36.825a76.205 76.205 0 0 0-6.419 11.118z"/></g></g><g><defs><path id="a" d="M0 0h180v360H0z"/></defs><clipPath id="b"><use xlink:href="#a" overflow="visible"/></clipPath><path clip-path="url(#b)" fill="#2EBD2E" d="M338.536 121.801a30.864 30.864 0 0 1 6.888-12.697 178.723 178.723 0 0 0-21.092-36.672 29.965 29.965 0 0 1-14.869-.183c-15.82-4.238-25.314-20.356-21.665-36.364a181.119 181.119 0 0 0-36.75-21.236c-7.433 7.055-18.179 10.205-28.72 7.38-10.557-2.829-18.295-10.946-21.195-20.79a178.72 178.72 0 0 0-42.43.05c-4.841 15.691-21.125 24.903-36.946 20.664a29.983 29.983 0 0 1-12.944-7.253A178.66 178.66 0 0 0 72.18 35.858a30.838 30.838 0 0 1-.377 14.47c-4.28 15.975-20.262 25.646-36.077 22.09a181.035 181.035 0 0 0-21.091 36.564 30.76 30.76 0 0 1 6.744 28.505 30.759 30.759 0 0 1-20.133 21.328 178.692 178.692 0 0 0 .011 42.209c15.481 4.824 24.489 21.195 20.208 37.173a30.82 30.82 0 0 1-6.887 12.698 178.673 178.673 0 0 0 21.091 36.672 29.987 29.987 0 0 1 14.869.182c15.819 4.239 25.313 20.355 21.667 36.364a181.01 181.01 0 0 0 36.749 21.236c7.433-7.055 18.178-10.205 28.72-7.38 10.555 2.829 18.294 10.945 21.194 20.791a178.781 178.781 0 0 0 42.431-.05c4.843-15.691 21.124-24.905 36.946-20.665a29.96 29.96 0 0 1 12.944 7.254 178.722 178.722 0 0 0 36.631-21.159 30.83 30.83 0 0 1 .378-14.471c4.28-15.974 20.26-25.646 36.076-22.09A181.099 181.099 0 0 0 345.373 251a30.756 30.756 0 0 1-6.747-28.506 30.755 30.755 0 0 1 20.131-21.327 178.583 178.583 0 0 0-.013-42.196c-15.48-4.823-24.488-21.193-20.208-37.17zM220.11 329.696C137.436 351.849 52.456 302.787 30.303 220.11 8.15 137.437 57.213 52.457 139.889 30.304c82.677-22.153 167.656 26.91 189.81 109.585 22.153 82.676-26.911 167.653-109.589 189.807z"/><g clip-path="url(#b)" fill="#D1EB00"><path d="M272.438 278.487l-71.689-71.684a53.925 53.925 0 0 0-7.922 4.572l26.24 97.929a53.33 53.33 0 0 0 18.488-1.623v-.002a53.886 53.886 0 0 0 12.857-5.309l.525-.306c9.498-5.573 16.886-13.689 21.501-23.577zm-61.627 33.035l-26.237-97.925a53.9 53.9 0 0 0-9.149.001l-26.24 97.93c8.997 6.294 19.521 9.626 30.61 9.665l.637-.002a54.038 54.038 0 0 0 13.555-1.83 53.359 53.359 0 0 0 16.824-7.839zm-101.038-9.039c9.563 5.431 20.287 7.774 31.162 6.828l26.241-97.927a54.191 54.191 0 0 0-7.925-4.575l-71.689 71.689c4.645 9.952 12.096 18.101 21.683 23.682l.528.303zm-52.145-52.049l.309.53c5.571 9.491 13.686 16.879 23.574 21.493l71.687-71.686a54.21 54.21 0 0 0-4.575-7.924l-97.93 26.24c-.952 10.941 1.425 21.724 6.935 31.347zm88.775-75.007l-97.932-26.242c-6.295 8.999-9.628 19.526-9.667 30.617l.003.592c.079 11.018 3.412 21.477 9.669 30.419l97.926-26.239c.13-1.526.195-3.058.194-4.577a52.708 52.708 0 0 0-.193-4.57zm6.78-16.169l-71.69-71.689c-9.956 4.647-18.106 12.099-23.685 21.689l-.282.492c-5.446 9.582-7.792 20.311-6.844 31.192l97.926 26.239a54.066 54.066 0 0 0 4.575-7.923zM87.555 81.506l71.688 71.687a53.82 53.82 0 0 0 7.923-4.574l-26.24-97.929a53.34 53.34 0 0 0-18.49 1.625 54.079 54.079 0 0 0-12.87 5.315l-.505.293c-9.489 5.567-16.887 13.686-21.506 23.583zm61.624-33.023l26.237 97.925a53.892 53.892 0 0 0 9.149 0l26.244-97.93c-9.005-6.298-19.536-9.63-30.631-9.666l-.546.001a54.053 54.053 0 0 0-13.627 1.831 53.411 53.411 0 0 0-16.826 7.839zm101.083 9.061c-9.584-5.454-20.321-7.804-31.21-6.855l-26.24 97.926c1.261.877 2.554 1.7 3.865 2.457a54.918 54.918 0 0 0 4.059 2.118l71.69-71.688c-4.651-9.96-12.107-18.114-21.7-23.691l-.464-.267zm52.096 52.02l-.29-.499c-5.548-9.473-13.672-16.876-23.58-21.5l-71.687 71.687a53.688 53.688 0 0 0 4.575 7.923l97.93-26.24c.954-10.951-1.427-21.742-6.948-31.371zm18.836 70.612l-.001-.527c-.068-11.026-3.401-21.501-9.667-30.461l-97.929 26.239a54.082 54.082 0 0 0-.196 4.58c0 1.513.066 3.042.196 4.57l97.931 26.24c6.3-9.007 9.634-19.543 9.666-30.641zm-114.399 20.568l71.691 71.689c9.962-4.649 18.117-12.108 23.696-21.71l.236-.413c5.474-9.604 7.828-20.35 6.877-31.249l-97.926-26.238a53.782 53.782 0 0 0-4.574 7.921z"/></g><defs><path id="c" d="M180 0h180v360H180z"/></defs><clipPath id="d"><use xlink:href="#c" overflow="visible"/></clipPath><path clip-path="url(#d)" fill="#32CD32" d="M338.536 121.801a30.864 30.864 0 0 1 6.888-12.697 178.723 178.723 0 0 0-21.092-36.672 29.965 29.965 0 0 1-14.869-.183c-15.82-4.238-25.314-20.356-21.665-36.364a181.119 181.119 0 0 0-36.75-21.236c-7.433 7.055-18.179 10.205-28.72 7.38-10.557-2.829-18.295-10.946-21.195-20.79a178.72 178.72 0 0 0-42.43.05c-4.841 15.691-21.125 24.903-36.946 20.664a29.983 29.983 0 0 1-12.944-7.253A178.66 178.66 0 0 0 72.18 35.858a30.838 30.838 0 0 1-.377 14.47c-4.28 15.975-20.262 25.646-36.077 22.09a181.035 181.035 0 0 0-21.091 36.564 30.76 30.76 0 0 1 6.744 28.505 30.759 30.759 0 0 1-20.133 21.328 178.692 178.692 0 0 0 .011 42.209c15.481 4.824 24.489 21.195 20.208 37.173a30.82 30.82 0 0 1-6.887 12.698 178.673 178.673 0 0 0 21.091 36.672 29.987 29.987 0 0 1 14.869.182c15.819 4.239 25.313 20.355 21.667 36.364a181.01 181.01 0 0 0 36.749 21.236c7.433-7.055 18.178-10.205 28.72-7.38 10.555 2.829 18.294 10.945 21.194 20.791a178.781 178.781 0 0 0 42.431-.05c4.843-15.691 21.124-24.905 36.946-20.665a29.96 29.96 0 0 1 12.944 7.254 178.722 178.722 0 0 0 36.631-21.159 30.83 30.83 0 0 1 .378-14.471c4.28-15.974 20.26-25.646 36.076-22.09A181.099 181.099 0 0 0 345.373 251a30.756 30.756 0 0 1-6.747-28.506 30.755 30.755 0 0 1 20.131-21.327 178.583 178.583 0 0 0-.013-42.196c-15.48-4.823-24.488-21.193-20.208-37.17zM220.11 329.696C137.436 351.849 52.456 302.787 30.303 220.11 8.15 137.437 57.213 52.457 139.889 30.304c82.677-22.153 167.656 26.91 189.81 109.585 22.153 82.676-26.911 167.653-109.589 189.807z"/><g clip-path="url(#d)" fill="#E3FF00"><path d="M272.438 278.487l-71.689-71.684a53.925 53.925 0 0 0-7.922 4.572l26.24 97.929a53.33 53.33 0 0 0 18.488-1.623v-.002a53.886 53.886 0 0 0 12.857-5.309l.525-.306c9.498-5.573 16.886-13.689 21.501-23.577zm-61.627 33.035l-26.237-97.925a53.9 53.9 0 0 0-9.149.001l-26.24 97.93c8.997 6.294 19.521 9.626 30.61 9.665l.637-.002a54.038 54.038 0 0 0 13.555-1.83 53.359 53.359 0 0 0 16.824-7.839zm-101.038-9.039c9.563 5.431 20.287 7.774 31.162 6.828l26.241-97.927a54.191 54.191 0 0 0-7.925-4.575l-71.689 71.689c4.645 9.952 12.096 18.101 21.683 23.682l.528.303zm-52.145-52.049l.309.53c5.571 9.491 13.686 16.879 23.574 21.493l71.687-71.686a54.21 54.21 0 0 0-4.575-7.924l-97.93 26.24c-.952 10.941 1.425 21.724 6.935 31.347zm88.775-75.007l-97.932-26.242c-6.295 8.999-9.628 19.526-9.667 30.617l.003.592c.079 11.018 3.412 21.477 9.669 30.419l97.926-26.239c.13-1.526.195-3.058.194-4.577a52.708 52.708 0 0 0-.193-4.57zm6.78-16.169l-71.69-71.689c-9.956 4.647-18.106 12.099-23.685 21.689l-.282.492c-5.446 9.582-7.792 20.311-6.844 31.192l97.926 26.239a54.066 54.066 0 0 0 4.575-7.923zM87.555 81.506l71.688 71.687a53.82 53.82 0 0 0 7.923-4.574l-26.24-97.929a53.34 53.34 0 0 0-18.49 1.625 54.079 54.079 0 0 0-12.87 5.315l-.505.293c-9.489 5.567-16.887 13.686-21.506 23.583zm61.624-33.023l26.237 97.925a53.892 53.892 0 0 0 9.149 0l26.244-97.93c-9.005-6.298-19.536-9.63-30.631-9.666l-.546.001a54.053 54.053 0 0 0-13.627 1.831 53.411 53.411 0 0 0-16.826 7.839zm101.083 9.061c-9.584-5.454-20.321-7.804-31.21-6.855l-26.24 97.926c1.261.877 2.554 1.7 3.865 2.457a54.918 54.918 0 0 0 4.059 2.118l71.69-71.688c-4.651-9.96-12.107-18.114-21.7-23.691l-.464-.267zm52.096 52.02l-.29-.499c-5.548-9.473-13.672-16.876-23.58-21.5l-71.687 71.687a53.688 53.688 0 0 0 4.575 7.923l97.93-26.24c.954-10.951-1.427-21.742-6.948-31.371zm18.836 70.612l-.001-.527c-.068-11.026-3.401-21.501-9.667-30.461l-97.929 26.239a54.082 54.082 0 0 0-.196 4.58c0 1.513.066 3.042.196 4.57l97.931 26.24c6.3-9.007 9.634-19.543 9.666-30.641zm-114.399 20.568l71.691 71.689c9.962-4.649 18.117-12.108 23.696-21.71l.236-.413c5.474-9.604 7.828-20.35 6.877-31.249l-97.926-26.238a53.782 53.782 0 0 0-4.574 7.921z"/></g></g></svg>