<svg version="1.1" xmlns="http://www.w3.org/2000/svg" xmlns:xlink="http://www.w3.org/1999/xlink" x="0px" y="0px" width="360px"
	 height="360px" viewBox="0 0 360 360" enable-background="new 0 0 360 360" xml:space="preserve">
<g id="full_color">
	<g>
		<defs>
			<rect id="SVGID_1_" width="180" height="360"/>
		</defs>
		<clipPath id="SVGID_2_">
			<use xlink:href="#SVGID_1_"  overflow="visible"/>
		</clipPath>
		<path clip-path="url(#SVGID_2_)" fill="#2EBD2E" d="M338.536,121.801c1.311-4.891,3.726-9.185,6.888-12.697
			c-5.646-13.221-12.757-25.494-21.092-36.672c-4.747,1.152-9.831,1.167-14.869-0.183c-15.82-4.238-25.314-20.356-21.665-36.364
			c-11.373-8.493-23.713-15.624-36.75-21.236c-7.433,7.055-18.179,10.205-28.72,7.38c-10.557-2.829-18.295-10.946-21.195-20.79
			c-13.888-1.646-28.114-1.674-42.43,0.05c-4.841,15.691-21.125,24.903-36.946,20.664c-5.026-1.347-9.412-3.894-12.944-7.253
			C95.603,20.369,83.343,27.502,72.18,35.858c0.991,4.632,0.936,9.569-0.377,14.47c-4.28,15.975-20.262,25.646-36.077,22.09
			c-8.43,11.321-15.513,23.599-21.091,36.564c6.656,7.447,9.543,18.059,6.744,28.505c-2.803,10.462-10.627,18.215-20.133,21.328
			c-1.642,13.816-1.682,27.968,0.011,42.209c15.481,4.824,24.489,21.195,20.208,37.173c-1.31,4.892-3.723,9.187-6.887,12.698
			c5.646,13.221,12.755,25.494,21.091,36.672c4.747-1.151,9.832-1.167,14.869,0.182c15.819,4.239,25.313,20.355,21.667,36.364
			c11.371,8.494,23.712,15.624,36.749,21.236c7.433-7.055,18.178-10.205,28.72-7.38c10.555,2.829,18.294,10.945,21.194,20.791
			c13.888,1.646,28.115,1.673,42.431-0.05c4.843-15.691,21.124-24.905,36.946-20.665c5.026,1.346,9.411,3.893,12.944,7.254
			c13.208-5.669,25.469-12.804,36.631-21.159c-0.991-4.631-0.936-9.568,0.378-14.471c4.28-15.974,20.26-25.646,36.076-22.09
			c8.433-11.325,15.518-23.607,21.099-36.579c-6.658-7.446-9.546-18.059-6.747-28.506c2.803-10.462,10.626-18.215,20.131-21.327
			c1.641-13.812,1.681-27.96-0.013-42.196C343.264,154.148,334.256,137.778,338.536,121.801z M220.11,329.696
			C137.436,351.849,52.456,302.787,30.303,220.11C8.15,137.437,57.213,52.457,139.889,30.304
			c82.677-22.153,167.656,26.91,189.81,109.585C351.852,222.565,302.788,307.542,220.11,329.696z"/>
		<g clip-path="url(#SVGID_2_)">
			<path fill="#D1EB00" d="M272.438,278.487l-71.689-71.684c-1.39,0.653-2.747,1.361-4.061,2.119
				c-1.312,0.757-2.603,1.577-3.861,2.453l26.24,97.929c6.23,0.541,12.438-0.002,18.488-1.623c0,0,0,0,0-0.002
				c4.473-1.197,8.799-2.983,12.857-5.309l0.525-0.306C260.435,296.491,267.823,288.375,272.438,278.487z"/>
			<path fill="#D1EB00" d="M210.811,311.522l-26.237-97.925c-1.527-0.129-3.06-0.195-4.579-0.195c-1.515,0-3.045,0.066-4.57,0.196
				l-26.24,97.93c8.997,6.294,19.521,9.626,30.61,9.665l0.637-0.002c4.578-0.034,9.149-0.65,13.555-1.83
				C200.038,317.739,205.686,315.105,210.811,311.522z"/>
			<path fill="#D1EB00" d="M109.773,302.483c9.563,5.431,20.287,7.774,31.162,6.828l26.241-97.927
				c-1.259-0.876-2.552-1.698-3.866-2.456c-1.312-0.759-2.671-1.468-4.059-2.119l-71.689,71.689
				c4.645,9.952,12.096,18.101,21.683,23.682L109.773,302.483z"/>
			<path fill="#D1EB00" d="M57.628,250.434l0.309,0.53c5.571,9.491,13.686,16.879,23.574,21.493l71.687-71.686
				c-0.652-1.388-1.361-2.747-2.12-4.061c-0.757-1.313-1.579-2.605-2.455-3.863l-97.93,26.24
				C49.741,230.028,52.118,240.811,57.628,250.434z"/>
			<path fill="#D1EB00" d="M146.403,175.427l-97.932-26.242c-6.295,8.999-9.628,19.526-9.667,30.617l0.003,0.592
				c0.079,11.018,3.412,21.477,9.669,30.419l97.926-26.239c0.13-1.526,0.195-3.058,0.194-4.577
				C146.599,178.482,146.533,176.954,146.403,175.427z"/>
			<path fill="#D1EB00" d="M153.183,159.258l-71.69-71.689c-9.956,4.647-18.106,12.099-23.685,21.689l-0.282,0.492
				c-5.446,9.582-7.792,20.311-6.844,31.192l97.926,26.239c0.876-1.258,1.698-2.551,2.458-3.868
				C151.822,162.003,152.531,160.646,153.183,159.258z"/>
			<path fill="#D1EB00" d="M87.555,81.506l71.688,71.687c1.388-0.652,2.746-1.36,4.06-2.12c1.313-0.756,2.604-1.578,3.863-2.454
				l-26.24-97.929c-6.232-0.541-12.439,0.004-18.49,1.625c-4.478,1.2-8.807,2.988-12.87,5.315l-0.505,0.293
				C99.572,63.49,92.174,71.609,87.555,81.506z"/>
			<path fill="#D1EB00" d="M149.179,48.483l26.237,97.925c1.532,0.13,3.063,0.195,4.58,0.195c1.514,0,3.044-0.065,4.569-0.195
				l26.244-97.93c-9.005-6.298-19.536-9.63-30.631-9.666l-0.546,0.001c-4.627,0.031-9.209,0.647-13.627,1.831
				C159.953,42.268,154.307,44.899,149.179,48.483z"/>
			<path fill="#D1EB00" d="M250.262,57.544c-9.584-5.454-20.321-7.804-31.21-6.855l-26.24,97.926c1.261,0.877,2.554,1.7,3.865,2.457
				c1.315,0.758,2.672,1.466,4.059,2.118l71.69-71.688c-4.651-9.96-12.107-18.114-21.7-23.691L250.262,57.544z"/>
			<path fill="#D1EB00" d="M302.358,109.564l-0.29-0.499c-5.548-9.473-13.672-16.876-23.58-21.5l-71.687,71.687
				c0.651,1.388,1.36,2.747,2.12,4.062c0.761,1.314,1.582,2.606,2.455,3.861l97.93-26.24
				C310.26,129.984,307.879,119.193,302.358,109.564z"/>
			<path fill="#D1EB00" d="M321.194,180.176l-0.001-0.527c-0.068-11.026-3.401-21.501-9.667-30.461l-97.929,26.239
				c-0.13,1.527-0.196,3.06-0.196,4.58c0,1.513,0.066,3.042,0.196,4.57l97.931,26.24
				C317.828,201.81,321.162,191.274,321.194,180.176z"/>
			<path fill="#D1EB00" d="M206.795,200.744l71.691,71.689c9.962-4.649,18.117-12.108,23.696-21.71l0.236-0.413
				c5.474-9.604,7.828-20.35,6.877-31.249l-97.926-26.238c-0.874,1.252-1.694,2.547-2.457,3.867
				C208.154,198.005,207.445,199.36,206.795,200.744z"/>
		</g>
	</g>
	<g>
		<defs>
			<rect id="SVGID_3_" x="180" width="180" height="360"/>
		</defs>
		<clipPath id="SVGID_4_">
			<use xlink:href="#SVGID_3_"  overflow="visible"/>
		</clipPath>
		<path clip-path="url(#SVGID_4_)" fill="#32CD32" d="M338.536,121.801c1.311-4.891,3.726-9.185,6.888-12.697
			c-5.646-13.221-12.757-25.494-21.092-36.672c-4.747,1.152-9.831,1.167-14.869-0.183c-15.82-4.238-25.314-20.356-21.665-36.364
			c-11.373-8.493-23.713-15.624-36.75-21.236c-7.433,7.055-18.179,10.205-28.72,7.38c-10.557-2.829-18.295-10.946-21.195-20.79
			c-13.888-1.646-28.114-1.674-42.43,0.05c-4.841,15.691-21.125,24.903-36.946,20.664c-5.026-1.347-9.412-3.894-12.944-7.253
			C95.603,20.369,83.343,27.502,72.18,35.858c0.991,4.632,0.936,9.569-0.377,14.47c-4.28,15.975-20.262,25.646-36.077,22.09
			c-8.43,11.321-15.513,23.599-21.091,36.564c6.656,7.447,9.543,18.059,6.744,28.505c-2.803,10.462-10.627,18.215-20.133,21.328
			c-1.642,13.816-1.682,27.968,0.011,42.209c15.481,4.824,24.489,21.195,20.208,37.173c-1.31,4.892-3.723,9.187-6.887,12.698
			c5.646,13.221,12.755,25.494,21.091,36.672c4.747-1.151,9.832-1.167,14.869,0.182c15.819,4.239,25.313,20.355,21.667,36.364
			c11.371,8.494,23.712,15.624,36.749,21.236c7.433-7.055,18.178-10.205,28.72-7.38c10.555,2.829,18.294,10.945,21.194,20.791
			c13.888,1.646,28.115,1.673,42.431-0.05c4.843-15.691,21.124-24.905,36.946-20.665c5.026,1.346,9.411,3.893,12.944,7.254
			c13.208-5.669,25.469-12.804,36.631-21.159c-0.991-4.631-0.936-9.568,0.378-14.471c4.28-15.974,20.26-25.646,36.076-22.09
			c8.433-11.325,15.518-23.607,21.099-36.579c-6.658-7.446-9.546-18.059-6.747-28.506c2.803-10.462,10.626-18.215,20.131-21.327
			c1.641-13.812,1.681-27.96-0.013-42.196C343.264,154.148,334.256,137.778,338.536,121.801z M220.11,329.696
			C137.436,351.849,52.456,302.787,30.303,220.11C8.15,137.437,57.213,52.457,139.889,30.304
			c82.677-22.153,167.656,26.91,189.81,109.585C351.852,222.565,302.788,307.542,220.11,329.696z"/>
		<g clip-path="url(#SVGID_4_)">
			<path fill="#E3FF00" d="M272.438,278.487l-71.689-71.684c-1.39,0.653-2.747,1.361-4.061,2.119
				c-1.312,0.757-2.603,1.577-3.861,2.453l26.24,97.929c6.23,0.541,12.438-0.002,18.488-1.623c0,0,0,0,0-0.002
				c4.473-1.197,8.799-2.983,12.857-5.309l0.525-0.306C260.435,296.491,267.823,288.375,272.438,278.487z"/>
			<path fill="#E3FF00" d="M210.811,311.522l-26.237-97.925c-1.527-0.129-3.06-0.195-4.579-0.195c-1.515,0-3.045,0.066-4.57,0.196
				l-26.24,97.93c8.997,6.294,19.521,9.626,30.61,9.665l0.637-0.002c4.578-0.034,9.149-0.65,13.555-1.83
				C200.038,317.739,205.686,315.105,210.811,311.522z"/>
			<path fill="#E3FF00" d="M109.773,302.483c9.563,5.431,20.287,7.774,31.162,6.828l26.241-97.927
				c-1.259-0.876-2.552-1.698-3.866-2.456c-1.312-0.759-2.671-1.468-4.059-2.119l-71.689,71.689
				c4.645,9.952,12.096,18.101,21.683,23.682L109.773,302.483z"/>
			<path fill="#E3FF00" d="M57.628,250.434l0.309,0.53c5.571,9.491,13.686,16.879,23.574,21.493l71.687-71.686
				c-0.652-1.388-1.361-2.747-2.12-4.061c-0.757-1.313-1.579-2.605-2.455-3.863l-97.93,26.24
				C49.741,230.028,52.118,240.811,57.628,250.434z"/>
			<path fill="#E3FF00" d="M146.403,175.427l-97.932-26.242c-6.295,8.999-9.628,19.526-9.667,30.617l0.003,0.592
				c0.079,11.018,3.412,21.477,9.669,30.419l97.926-26.239c0.13-1.526,0.195-3.058,0.194-4.577
				C146.599,178.482,146.533,176.954,146.403,175.427z"/>
			<path fill="#E3FF00" d="M153.183,159.258l-71.69-71.689c-9.956,4.647-18.106,12.099-23.685,21.689l-0.282,0.492
				c-5.446,9.582-7.792,20.311-6.844,31.192l97.926,26.239c0.876-1.258,1.698-2.551,2.458-3.868
				C151.822,162.003,152.531,160.646,153.183,159.258z"/>
			<path fill="#E3FF00" d="M87.555,81.506l71.688,71.687c1.388-0.652,2.746-1.36,4.06-2.12c1.313-0.756,2.604-1.578,3.863-2.454
				l-26.24-97.929c-6.232-0.541-12.439,0.004-18.49,1.625c-4.478,1.2-8.807,2.988-12.87,5.315l-0.505,0.293
				C99.572,63.49,92.174,71.609,87.555,81.506z"/>
			<path fill="#E3FF00" d="M149.179,48.483l26.237,97.925c1.532,0.13,3.063,0.195,4.58,0.195c1.514,0,3.044-0.065,4.569-0.195
				l26.244-97.93c-9.005-6.298-19.536-9.63-30.631-9.666l-0.546,0.001c-4.627,0.031-9.209,0.647-13.627,1.831
				C159.953,42.268,154.307,44.899,149.179,48.483z"/>
			<path fill="#E3FF00" d="M250.262,57.544c-9.584-5.454-20.321-7.804-31.21-6.855l-26.24,97.926c1.261,0.877,2.554,1.7,3.865,2.457
				c1.315,0.758,2.672,1.466,4.059,2.118l71.69-71.688c-4.651-9.96-12.107-18.114-21.7-23.691L250.262,57.544z"/>
			<path fill="#E3FF00" d="M302.358,109.564l-0.29-0.499c-5.548-9.473-13.672-16.876-23.58-21.5l-71.687,71.687
				c0.651,1.388,1.36,2.747,2.12,4.062c0.761,1.314,1.582,2.606,2.455,3.861l97.93-26.24
				C310.26,129.984,307.879,119.193,302.358,109.564z"/>
			<path fill="#E3FF00" d="M321.194,180.176l-0.001-0.527c-0.068-11.026-3.401-21.501-9.667-30.461l-97.929,26.239
				c-0.13,1.527-0.196,3.06-0.196,4.58c0,1.513,0.066,3.042,0.196,4.57l97.931,26.24
				C317.828,201.81,321.162,191.274,321.194,180.176z"/>
			<path fill="#E3FF00" d="M206.795,200.744l71.691,71.689c9.962-4.649,18.117-12.108,23.696-21.71l0.236-0.413
				c5.474-9.604,7.828-20.35,6.877-31.249l-97.926-26.238c-0.874,1.252-1.694,2.547-2.457,3.867
				C208.154,198.005,207.445,199.36,206.795,200.744z"/>
		</g>
	</g>
</g>
</svg>
