<svg xmlns="http://www.w3.org/2000/svg" width="52" height="52" viewBox="0 0 52 52"><g fill="#666766"><path d="M24.576 14.174v23.652h-5.391l-3.2-10.752v10.752h-5.142V14.174h5.142l3.448 10.65v-10.65h5.143zm16.581 8.707h-6.15v-2.147c0-1.354-.059-2.201-.176-2.542-.116-.341-.395-.511-.833-.511-.379 0-.638.146-.773.438-.137.292-.205 1.042-.205 2.25V31.72c0 1.062.068 1.76.205 2.096.136.337.408.505.817.505.448 0 .753-.19.913-.57.161-.38.241-1.12.241-2.221v-2.805h-1.241v-3.594h7.202v12.695h-3.865l-.569-1.694c-.419.73-.947 1.278-1.586 1.644s-1.391.548-2.259.548c-1.033 0-2-.251-2.902-.753-.901-.501-1.586-1.122-2.054-1.862s-.761-1.517-.877-2.33c-.117-.813-.176-2.033-.176-3.66v-7.027c0-2.259.122-3.9.365-4.923.243-1.022.942-1.959 2.097-2.812 1.154-.852 2.646-1.278 4.478-1.278 1.802 0 3.297.37 4.485 1.11 1.188.74 1.962 1.619 2.322 2.637.36 1.018.541 2.496.541 4.434v1.021zM10.934 7.853c.184-.193.459-.44.876-.751.421-.314.782-.458 1.104-.447.306.009.624.163.845.459.221.296.31.621.257.925-.069.394-.34.75-.744 1.051-.09.067-.174.123-.243.161l.807 1.081-.677.505-2.225-2.984zm1.7.867c.068-.03.144-.079.242-.153.363-.271.45-.622.219-.932-.208-.278-.524-.3-.864-.046a1.454 1.454 0 0 0-.262.238l.665.893zm2.421-3.624c.23-.154.588-.355 1-.543.509-.232.899-.319 1.232-.237.278.07.499.258.643.574.2.438.027.879-.219 1.122l.007.015c.283-.013.52.156.75.432.284.338.595.737.722.839l-.793.362c-.1-.071-.31-.314-.604-.69-.287-.385-.488-.435-.806-.296l-.234.107.617 1.349-.767.35-1.548-3.384zm1.443 1.125l.305-.14c.387-.176.527-.475.39-.775-.144-.315-.43-.375-.788-.218-.188.086-.288.15-.339.186l.432.947zm6.988-1.917c.244 1.213-.344 2.095-1.424 2.312-1.097.22-1.904-.48-2.116-1.534-.223-1.108.318-2.079 1.41-2.297 1.135-.228 1.925.498 2.13 1.519zm-2.66.585c.145.724.588 1.167 1.147 1.054.565-.113.78-.716.636-1.435-.133-.664-.566-1.17-1.142-1.055-.565.113-.786.717-.641 1.436zm5.515-2.508l-.093 2.169c-.028.65.203.99.639 1.009.447.02.706-.283.735-.949l.093-2.169.85.037-.092 2.114c-.05 1.163-.66 1.691-1.643 1.649-.95-.041-1.486-.59-1.434-1.792l.09-2.103.855.035zm4.721.551a7.65 7.65 0 0 1 1.128.246c.688.2 1.097.453 1.369.817.295.389.401.903.216 1.543-.202.693-.593 1.099-1.028 1.292-.473.207-1.097.188-1.806-.018a7.172 7.172 0 0 1-.913-.324l1.034-3.556zm-.039 3.194c.065.037.178.069.28.099.739.221 1.342-.047 1.593-.913.224-.751-.101-1.277-.804-1.481a1.855 1.855 0 0 0-.38-.076l-.689 2.371zm5.352-1.363l.751.411-1.467 2.681 1.314.719-.343.628-2.065-1.13 1.81-3.309zm1.729 5.52l.972-1.201.474-2.481.757.612-.271.947c-.081.287-.146.493-.228.744l.009.007c.213-.13.42-.244.676-.382l.866-.466.743.602-2.349.929-.988 1.223-.661-.534zM15.167 45.046c.231-.391.515-.86.812-1.321l-.014-.009c-.359.341-.782.707-1.144 1l-1.183.988-.56-.36.453-1.446c.136-.438.319-.959.51-1.422l-.009-.006c-.295.416-.624.896-.902 1.276l-.833 1.167-.663-.427 2.246-3.04.955.615-.372 1.259c-.138.43-.293.889-.462 1.306l.014.009c.326-.309.704-.658 1.035-.943l1.018-.836.936.604-1.869 3.282-.701-.451.733-1.245zm3.281 2.005l-.558.836-.84-.277 2.275-3.222 1.063.35-.069 3.949-.872-.287.026-1.011-1.025-.338zm1.109-.307l.027-.834c.006-.233.03-.521.047-.75l-.011-.004c-.123.195-.266.449-.393.637l-.463.69.793.261zm3.222-1.346a7.609 7.609 0 0 1 1.156.017c.714.06 1.166.226 1.506.529.366.322.573.806.518 1.47-.06.719-.363 1.193-.75 1.471-.423.296-1.039.402-1.775.341a7.187 7.187 0 0 1-.96-.136l.305-3.692zm.599 3.138c.071.022.188.032.294.041.77.069 1.307-.312 1.381-1.21.07-.781-.353-1.231-1.083-1.292a1.744 1.744 0 0 0-.387.001l-.205 2.46zm6.623-1.15l-1.375.183.117.888 1.537-.204.092.693-2.385.316-.497-3.738 2.308-.307.093.693-1.459.194.103.776 1.376-.183.09.689zm4.074-3.574l1.484 3.468-.787.337-1.484-3.468.787-.337zm3.555 2.464l-2.094-3.139.829-.553 1.419.715c.406.207.854.474 1.229.734l.014-.01a14.242 14.242 0 0 1-.934-1.268l-.611-.917.651-.436 2.094 3.139-.745.497-1.478-.764c-.41-.211-.886-.479-1.284-.744l-.011.014c.295.401.6.838.94 1.351l.631.944-.65.437z"/><path d="M26 52c-6.945 0-13.474-2.704-18.385-7.615C2.705 39.475 0 32.945 0 26c0-6.945 2.705-13.474 7.615-18.385S19.055 0 26 0c6.945 0 13.474 2.705 18.385 7.615S52 19.055 52 26c0 6.945-2.704 13.474-7.615 18.385S32.945 52 26 52zM26 .7C19.242.7 12.889 3.331 8.11 8.11S.7 19.242.7 26s2.631 13.111 7.41 17.891c4.779 4.778 11.132 7.41 17.89 7.41s13.111-2.632 17.891-7.41c4.778-4.779 7.41-11.133 7.41-17.891s-2.632-13.111-7.41-17.89C39.111 3.331 32.758.7 26 .7z"/></g></svg>