<svg version="1.1" xmlns="http://www.w3.org/2000/svg" xmlns:xlink="http://www.w3.org/1999/xlink" x="0px" y="0px" width="52px"
	 height="52px" viewBox="0 0 52 52" enable-background="new 0 0 52 52" xml:space="preserve">
<g id="Layer_2_copy">
	<g>
		<path fill="#231F20" d="M24.576,14.174v23.652h-5.391l-3.2-10.752v10.752h-5.142V14.174h5.142l3.448,10.65v-10.65H24.576z"/>
		<path fill="#231F20" d="M41.157,22.881h-6.15v-2.147c0-1.354-0.059-2.201-0.176-2.542c-0.117-0.341-0.395-0.511-0.833-0.511
			c-0.379,0-0.638,0.146-0.773,0.438c-0.137,0.292-0.205,1.042-0.205,2.25V31.72c0,1.062,0.068,1.76,0.205,2.096
			c0.136,0.337,0.408,0.505,0.817,0.505c0.448,0,0.753-0.19,0.913-0.57c0.161-0.38,0.241-1.12,0.241-2.221v-2.805h-1.241v-3.594
			h7.202v12.695h-3.865l-0.569-1.694c-0.419,0.73-0.947,1.278-1.586,1.644c-0.639,0.364-1.391,0.548-2.259,0.548
			c-1.033,0-2-0.251-2.902-0.753c-0.901-0.501-1.586-1.122-2.054-1.862s-0.761-1.517-0.877-2.33
			c-0.117-0.813-0.176-2.033-0.176-3.66v-7.027c0-2.259,0.122-3.9,0.365-4.923c0.243-1.022,0.942-1.959,2.097-2.812
			c1.154-0.852,2.646-1.278,4.478-1.278c1.802,0,3.297,0.37,4.485,1.11c1.188,0.74,1.962,1.619,2.322,2.637
			c0.36,1.018,0.541,2.496,0.541,4.434V22.881z"/>
	</g>
	<g>
		<path fill="#231F20" d="M10.934,7.853c0.184-0.193,0.459-0.44,0.876-0.751c0.421-0.314,0.782-0.458,1.104-0.447
			c0.306,0.009,0.624,0.163,0.845,0.458c0.221,0.296,0.31,0.621,0.257,0.925c-0.069,0.394-0.34,0.75-0.744,1.051
			c-0.09,0.067-0.174,0.123-0.243,0.161l0.807,1.081l-0.677,0.505L10.934,7.853z M12.634,8.72c0.068-0.03,0.144-0.079,0.242-0.153
			c0.363-0.271,0.45-0.622,0.219-0.932c-0.208-0.278-0.524-0.3-0.864-0.046c-0.139,0.104-0.223,0.188-0.263,0.238L12.634,8.72z"/>
		<path fill="#231F20" d="M15.055,5.096c0.23-0.154,0.588-0.355,1-0.543c0.509-0.233,0.899-0.319,1.232-0.237
			c0.278,0.07,0.499,0.258,0.644,0.574c0.2,0.438,0.027,0.879-0.219,1.122l0.007,0.015c0.283-0.013,0.52,0.156,0.75,0.432
			c0.284,0.338,0.595,0.737,0.722,0.839L18.397,7.66c-0.1-0.071-0.31-0.314-0.604-0.69c-0.287-0.385-0.488-0.435-0.806-0.296
			l-0.234,0.107l0.617,1.349L16.603,8.48L15.055,5.096z M16.498,6.221l0.305-0.14c0.387-0.176,0.527-0.475,0.39-0.775
			c-0.144-0.315-0.43-0.375-0.788-0.218c-0.188,0.086-0.288,0.15-0.339,0.186L16.498,6.221z"/>
		<path fill="#231F20" d="M23.486,4.304c0.244,1.213-0.344,2.095-1.424,2.312c-1.097,0.22-1.904-0.48-2.116-1.534
			c-0.223-1.108,0.318-2.079,1.41-2.297C22.491,2.557,23.281,3.283,23.486,4.304z M20.826,4.889
			c0.145,0.724,0.588,1.167,1.147,1.054c0.565-0.113,0.78-0.716,0.636-1.435c-0.133-0.664-0.566-1.17-1.142-1.055
			C20.902,3.566,20.681,4.17,20.826,4.889z"/>
		<path fill="#231F20" d="M26.341,2.381l-0.093,2.169C26.22,5.2,26.451,5.54,26.887,5.559c0.447,0.02,0.706-0.283,0.735-0.949
			l0.093-2.169l0.85,0.037l-0.092,2.114c-0.05,1.163-0.66,1.691-1.643,1.649c-0.95-0.041-1.485-0.59-1.434-1.792l0.09-2.103
			L26.341,2.381z"/>
		<path fill="#231F20" d="M31.062,2.932c0.314,0.039,0.714,0.126,1.128,0.246c0.688,0.2,1.097,0.453,1.369,0.817
			c0.295,0.389,0.401,0.903,0.216,1.543c-0.202,0.693-0.593,1.098-1.028,1.292c-0.473,0.207-1.097,0.188-1.806-0.018
			c-0.424-0.123-0.717-0.237-0.913-0.324L31.062,2.932z M31.023,6.126c0.065,0.037,0.178,0.069,0.28,0.099
			c0.739,0.221,1.342-0.047,1.593-0.913c0.224-0.751-0.101-1.277-0.804-1.481c-0.183-0.053-0.306-0.071-0.38-0.076L31.023,6.126z"/>
		<path fill="#231F20" d="M36.375,4.763l0.751,0.411l-1.467,2.681l1.314,0.719L36.63,9.202l-2.065-1.13L36.375,4.763z"/>
		<path fill="#231F20" d="M38.104,10.283l0.972-1.201l0.474-2.481l0.757,0.612L40.036,8.16c-0.081,0.287-0.146,0.493-0.228,0.744
			l0.009,0.007c0.213-0.13,0.42-0.244,0.676-0.382l0.866-0.466l0.743,0.602l-2.349,0.929l-0.988,1.223L38.104,10.283z"/>
	</g>
	<g>
		<path fill="#231F20" d="M15.167,45.046c0.231-0.391,0.515-0.86,0.812-1.321l-0.014-0.009c-0.359,0.341-0.782,0.707-1.144,1
			l-1.183,0.988l-0.56-0.36l0.453-1.446c0.136-0.438,0.319-0.959,0.51-1.422l-0.009-0.006c-0.295,0.416-0.624,0.896-0.902,1.276
			l-0.833,1.167l-0.663-0.427l2.246-3.04l0.955,0.615l-0.372,1.259c-0.138,0.43-0.293,0.889-0.462,1.306l0.014,0.009
			c0.326-0.309,0.704-0.658,1.035-0.943l1.018-0.836l0.936,0.604l-1.869,3.282l-0.701-0.451L15.167,45.046z"/>
		<path fill="#231F20" d="M18.448,47.051l-0.558,0.836l-0.84-0.277l2.275-3.222l1.063,0.35l-0.069,3.949l-0.872-0.287l0.026-1.011
			L18.448,47.051z M19.557,46.744l0.027-0.834c0.006-0.233,0.03-0.521,0.047-0.75l-0.011-0.004
			c-0.123,0.195-0.266,0.449-0.393,0.637l-0.463,0.69L19.557,46.744z"/>
		<path fill="#231F20" d="M22.779,45.398c0.316-0.024,0.726-0.019,1.155,0.017c0.714,0.06,1.167,0.226,1.506,0.529
			c0.366,0.322,0.573,0.806,0.518,1.47c-0.06,0.719-0.363,1.193-0.75,1.471c-0.423,0.296-1.039,0.402-1.775,0.341
			c-0.441-0.036-0.751-0.09-0.96-0.136L22.779,45.398z M23.378,48.536c0.071,0.022,0.188,0.032,0.294,0.041
			c0.77,0.069,1.307-0.312,1.381-1.21c0.07-0.781-0.353-1.231-1.083-1.292c-0.189-0.016-0.313-0.01-0.387,0.001L23.378,48.536z"/>
		<path fill="#231F20" d="M30.001,47.386l-1.375,0.183l0.117,0.888l1.537-0.204l0.092,0.693l-2.385,0.316l-0.497-3.738l2.308-0.307
			l0.092,0.693l-1.458,0.194l0.103,0.776l1.376-0.183L30.001,47.386z"/>
		<path fill="#231F20" d="M34.075,43.812l1.484,3.468l-0.787,0.337l-1.484-3.468L34.075,43.812z"/>
		<path fill="#231F20" d="M37.63,46.276l-2.094-3.139l0.829-0.553l1.419,0.715c0.406,0.207,0.854,0.474,1.229,0.734l0.014-0.01
			c-0.323-0.383-0.619-0.798-0.934-1.268l-0.611-0.917l0.651-0.436l2.094,3.139l-0.745,0.497l-1.478-0.764
			c-0.41-0.211-0.886-0.479-1.284-0.744l-0.011,0.014c0.295,0.401,0.6,0.838,0.94,1.35l0.631,0.945L37.63,46.276z"/>
	</g>
	<path fill="#231F20" d="M26,52c-6.945,0-13.474-2.704-18.385-7.615S0,32.945,0,26c0-6.945,2.705-13.474,7.615-18.385S19.055,0,26,0
		c6.945,0,13.474,2.705,18.385,7.615S52,19.055,52,26c0,6.945-2.704,13.474-7.615,18.385S32.945,52,26,52z M26,0.7
		c-6.758,0-13.111,2.631-17.89,7.41S0.7,19.242,0.7,26c0,6.758,2.631,13.111,7.41,17.891c4.779,4.778,11.132,7.41,17.89,7.41
		s13.111-2.632,17.891-7.41c4.778-4.779,7.41-11.133,7.41-17.891s-2.632-13.111-7.41-17.89C39.111,3.331,32.758,0.7,26,0.7z"/>
</g>
</svg>
