<svg xmlns="http://www.w3.org/2000/svg" width="52" height="52" viewBox="0 0 52 52"><path d="M33.838 19.958l-7.47 7.47a.556.556 0 0 1-.369.16.554.554 0 0 1-.369-.16l-7.469-7.47c-.098-.098-.161-.242-.161-.371s.063-.272.161-.369l.801-.801a.52.52 0 0 1 .369-.161.546.546 0 0 1 .369.161l6.3 6.3 6.301-6.3a.548.548 0 0 1 .369-.161c.128 0 .271.064.369.161l.8.801c.097.097.161.241.161.369s-.064.273-.162.371zm0 6.155l-7.47 7.471a.556.556 0 0 1-.369.16.556.556 0 0 1-.369-.16l-7.469-7.471c-.098-.096-.161-.24-.161-.368s.063-.272.161-.369l.801-.801a.52.52 0 0 1 .369-.161.546.546 0 0 1 .369.161l6.3 6.298 6.301-6.298a.548.548 0 0 1 .369-.161c.128 0 .271.064.369.161l.8.801c.097.096.161.24.161.369s-.064.272-.162.368z"/><path d="M26 52C11.664 52 0 40.337 0 26 0 11.664 11.664 0 26 0c14.337 0 26 11.664 26 26 0 14.337-11.663 26-26 26zm0-50.074C12.726 1.926 1.926 12.725 1.926 26c0 13.273 10.8 24.075 24.074 24.075 13.275 0 24.074-10.802 24.074-24.075C50.074 12.725 39.275 1.926 26 1.926z"/></svg>