<svg version="1.1" id="Layer_1" xmlns="http://www.w3.org/2000/svg" xmlns:xlink="http://www.w3.org/1999/xlink" x="0px" y="0px"
	 width="52px" height="52px" viewBox="0 0 52 52" enable-background="new 0 0 52 52" xml:space="preserve">
<g>
	<path fill="#231F20" d="M33.838,19.957l-7.47,7.47c-0.096,0.097-0.239,0.16-0.369,0.16c-0.127,0-0.272-0.063-0.369-0.16
		l-7.469-7.47C18.063,19.86,18,19.716,18,19.587s0.063-0.272,0.161-0.369l0.801-0.801c0.097-0.097,0.226-0.161,0.369-0.161
		c0.128,0,0.273,0.064,0.369,0.161l6.3,6.3l6.301-6.3c0.097-0.097,0.24-0.161,0.369-0.161c0.128,0,0.271,0.064,0.369,0.161
		l0.8,0.801C33.936,19.315,34,19.459,34,19.587S33.936,19.86,33.838,19.957z M33.838,26.113l-7.47,7.471
		c-0.096,0.096-0.239,0.159-0.369,0.159c-0.127,0-0.272-0.063-0.369-0.159l-7.469-7.471C18.063,26.016,18,25.872,18,25.744
		s0.063-0.272,0.161-0.369l0.801-0.801c0.097-0.097,0.226-0.161,0.369-0.161c0.128,0,0.273,0.064,0.369,0.161l6.3,6.299l6.301-6.299
		c0.097-0.097,0.24-0.161,0.369-0.161c0.128,0,0.271,0.064,0.369,0.161l0.8,0.801C33.936,25.471,34,25.615,34,25.744
		S33.936,26.016,33.838,26.113z"/>
</g>
<path fill="#231F20" d="M26,52C11.664,52,0,40.337,0,26C0,11.664,11.664,0,26,0c14.337,0,26,11.664,26,26C52,40.337,40.337,52,26,52
	z M26,1.926C12.726,1.926,1.926,12.725,1.926,26c0,13.274,10.8,24.075,24.074,24.075c13.275,0,24.074-10.801,24.074-24.075
	C50.074,12.725,39.275,1.926,26,1.926z"/>
</svg>
