<svg version="1.1" xmlns="http://www.w3.org/2000/svg" xmlns:xlink="http://www.w3.org/1999/xlink" x="0px" y="0px" width="600px"
	 height="600px" viewBox="0 0 600 600" enable-background="new 0 0 600 600" xml:space="preserve">
<g id="outline">
	<rect display="none" fill="#FFFFFF" width="600" height="600"/>
	<g>
		<path fill="#231F20" d="M299.758,600c-11.651,0-23.421-0.695-34.981-2.065l-0.774-0.093l-0.221-0.748
			c-4.908-16.655-17.751-29.255-34.355-33.705c-4.138-1.108-8.39-1.67-12.635-1.67c-12.61,0-24.659,4.842-33.924,13.637
			l-0.566,0.537l-0.716-0.309c-21.709-9.344-42.317-21.252-61.25-35.394l-0.615-0.46l0.171-0.751
			c5.968-26.186-9.459-52.085-35.12-58.962c-7.893-2.111-16.201-2.212-24.099-0.295l-0.76,0.185l-0.468-0.627
			c-14.049-18.839-25.876-39.402-35.153-61.121l-0.297-0.694l0.506-0.562c5.336-5.924,9.094-12.852,11.17-20.594
			c6.941-25.913-7.447-52.389-32.758-60.274l-0.731-0.229l-0.091-0.761c-2.78-23.381-2.786-47.051-0.019-70.353l0.089-0.75
			l0.718-0.235c16.05-5.253,28.254-18.184,32.649-34.588c4.389-16.375,0.301-33.656-10.936-46.227l-0.503-0.562l0.298-0.693
			c9.29-21.588,21.117-42.091,35.154-60.939L60,120.082l0.75,0.168c3.516,0.791,7.113,1.191,10.692,1.191
			c22.302-0.002,41.957-15.223,47.796-37.014c2.077-7.755,2.283-15.651,0.612-23.47l-0.158-0.741l0.605-0.454
			c18.83-14.093,39.372-25.958,61.056-35.265l0.718-0.308l0.564,0.538c5.872,5.587,13.127,9.652,20.979,11.756
			c4.141,1.109,8.392,1.671,12.638,1.671c21.435,0,40.87-14.468,47.262-35.182l0.227-0.734l0.763-0.092
			C276.341,0.723,288.367,0,300.251,0c11.648,0,23.414,0.695,34.972,2.064l0.773,0.092l0.221,0.749
			c4.909,16.656,17.752,29.257,34.359,33.706c4.138,1.109,8.389,1.671,12.633,1.67c12.61-0.001,24.659-4.844,33.924-13.637
			l0.566-0.537l0.716,0.309c21.708,9.344,42.314,21.251,61.249,35.392l0.615,0.46l-0.171,0.75
			c-5.969,26.188,9.458,52.087,35.121,58.962c7.888,2.114,16.198,2.214,24.1,0.297l0.759-0.185l0.468,0.627
			c14.053,18.843,25.88,39.408,35.154,61.123l0.297,0.694l-0.506,0.561c-5.339,5.927-9.097,12.855-11.169,20.592
			c-6.943,25.911,7.445,52.385,32.756,60.272l0.731,0.228l0.091,0.761c2.779,23.376,2.786,47.039,0.021,70.329l-0.089,0.75
			l-0.717,0.234c-16.048,5.255-28.252,18.186-32.646,34.587c-4.389,16.378-0.299,33.66,10.938,46.229l0.504,0.564l-0.299,0.692
			c-9.291,21.596-21.122,42.105-35.163,60.963l-0.459,0.615l-0.749-0.168c-3.515-0.79-7.111-1.191-10.691-1.191
			c-22.304,0-41.959,15.223-47.798,37.017c-2.079,7.757-2.285,15.654-0.612,23.468l0.159,0.74l-0.606,0.454
			c-18.834,14.097-39.375,25.962-61.056,35.266l-0.718,0.308l-0.564-0.537c-5.873-5.588-13.128-9.653-20.979-11.757
			c-4.14-1.108-8.391-1.672-12.639-1.672c-21.433,0-40.868,14.469-47.262,35.184l-0.227,0.733l-0.763,0.093
			C323.663,599.277,311.638,600,299.758,600z M265.824,595.675c11.22,1.3,22.632,1.959,33.934,1.959
			c11.533,0,23.204-0.687,34.701-2.041c6.926-21.303,27.083-36.115,49.289-36.115c4.453,0,8.912,0.589,13.251,1.752
			c7.979,2.138,15.37,6.208,21.426,11.791c21.016-9.083,40.945-20.596,59.258-34.23c-1.583-7.939-1.316-15.953,0.795-23.829
			c6.115-22.826,26.711-38.77,50.083-38.77c3.498,0,7.012,0.364,10.456,1.084c13.584-18.341,25.064-38.243,34.137-59.186
			c-11.391-13.115-15.488-30.944-10.959-47.85c4.535-16.931,17.02-30.33,33.475-35.98c2.627-22.614,2.62-45.578-0.02-68.273
			c-26.068-8.546-40.808-36.019-33.603-62.909c2.104-7.855,5.868-14.915,11.192-20.995c-9.055-21.05-20.527-41.003-34.118-59.327
			c-8.059,1.823-16.489,1.658-24.504-0.491c-26.651-7.139-42.771-33.843-36.981-61.018c-18.409-13.676-38.403-25.229-59.446-34.352
			c-9.628,8.874-22.019,13.751-34.98,13.751c-4.451,0-8.908-0.589-13.245-1.751c-17.159-4.597-30.485-17.491-35.789-34.572
			c-11.217-1.299-22.626-1.958-33.924-1.958c-11.536,0-23.209,0.687-34.709,2.041c-6.924,21.302-27.081,36.114-49.289,36.115
			c-4.453,0-8.911-0.589-13.25-1.752c-7.979-2.138-15.372-6.209-21.426-11.792c-21.02,9.087-40.95,20.599-59.259,34.23
			c1.582,7.944,1.314,15.958-0.795,23.832c-6.116,22.824-26.71,38.766-50.081,38.768c-3.498,0-7.013-0.365-10.458-1.086
			c-13.58,18.333-25.057,38.229-34.128,59.164c11.391,13.117,15.486,30.945,10.956,47.847
			c-4.536,16.934-17.021,30.333-33.479,35.983C1.704,288.339,1.71,311.31,4.351,334.01c26.068,8.545,40.808,36.02,33.604,62.912
			c-2.107,7.861-5.871,14.921-11.193,20.997c9.056,21.052,20.531,41.006,34.117,59.325c8.053-1.824,16.484-1.66,24.504,0.489
			c26.648,7.141,42.77,33.845,36.979,61.018c18.409,13.677,38.403,25.23,59.448,34.353c9.628-8.874,22.019-13.751,34.98-13.751
			c4.452,0,8.909,0.589,13.247,1.751C247.194,565.701,260.52,578.596,265.824,595.675z M299.837,558.522
			c-116.665,0-219.261-78.8-249.494-191.629c-17.868-66.684-8.698-136.335,25.82-196.123
			c34.521-59.788,90.256-102.555,156.941-120.422c21.969-5.886,44.53-8.871,67.059-8.871c116.666,0,219.262,78.8,249.494,191.629
			c17.869,66.685,8.7,136.336-25.819,196.123s-90.255,102.555-156.942,120.422C344.928,555.538,322.365,558.522,299.837,558.522z
			 M300.163,43.843c-22.321,0-44.678,2.958-66.446,8.79c-66.075,17.705-121.301,60.08-155.504,119.32
			c-34.204,59.24-43.289,128.254-25.585,194.328C82.585,478.077,184.24,556.156,299.837,556.156c22.321,0,44.678-2.957,66.446-8.79
			c66.077-17.704,121.303-60.08,155.507-119.32c34.202-59.239,43.288-128.252,25.582-194.328
			C517.416,121.923,415.76,43.843,300.163,43.843z"/>
		<g>
			<path fill="#231F20" d="M372.589,516.178L372.589,516.178c-2.597,0-5.233-0.114-7.837-0.341l-0.824-0.071l-0.215-0.801
				l-43.776-163.372l0.681-0.475c2.106-1.467,4.292-2.855,6.496-4.129c2.217-1.277,4.515-2.477,6.829-3.563l0.752-0.353
				L454.88,463.247l-0.351,0.751c-7.75,16.608-20.256,30.322-36.166,39.662l-0.872,0.51c-6.801,3.894-14.037,6.887-21.519,8.902
				l-0.119,0.032C388.245,515.144,380.418,516.178,372.589,516.178z M365.781,513.547c9.893,0.768,19.789-0.148,29.358-2.7
				l0.104-0.028c7.326-1.962,14.413-4.89,21.063-8.698l0.862-0.502c15.252-8.954,27.292-22.037,34.863-37.873L334.199,345.923
				c-2.002,0.963-3.984,2.009-5.904,3.116c-1.908,1.102-3.804,2.294-5.643,3.55L365.781,513.547z"/>
			<path fill="#231F20" d="M299.66,535.578h-0.008c-18.573-0.068-36.378-5.689-51.49-16.26l-0.679-0.475l0.215-0.801l43.776-163.375
				l0.827-0.069c5.146-0.439,10.277-0.436,15.389-0.001l0.828,0.069l43.989,164.166l-0.68,0.476
				c-8.619,6.027-18.142,10.463-28.304,13.186c-7.412,1.986-15.083,3.021-22.802,3.08L299.66,535.578z M250.199,517.852
				c14.566,9.987,31.649,15.296,49.458,15.36l1.054-0.004c7.512-0.055,14.983-1.064,22.201-2.998
				c9.628-2.58,18.667-6.739,26.88-12.369l-43.128-160.953c-4.438-0.333-8.867-0.337-13.335,0.002L250.199,517.852z"/>
			<path fill="#231F20" d="M227.344,516.191c0,0-0.001,0-0.002,0c-15.493,0-30.885-4.091-44.511-11.83l-0.88-0.503
				c-16.067-9.354-28.68-23.128-36.48-39.841l-0.351-0.751l120.187-120.186l0.752,0.354c2.322,1.092,4.618,2.291,6.823,3.565
				c2.203,1.271,4.392,2.661,6.504,4.131l0.682,0.475l-43.993,164.17l-0.824,0.072C232.623,516.076,229.964,516.191,227.344,516.191
				z M147.968,463.765c7.621,15.937,19.766,29.081,35.165,38.045l0.87,0.497c13.267,7.535,28.254,11.519,43.339,11.519
				c0.001,0,0.002,0,0.002,0c2.278,0,4.586-0.09,6.876-0.267l43.132-160.956c-1.846-1.258-3.744-2.451-5.652-3.554
				c-1.91-1.104-3.892-2.15-5.898-3.116L147.968,463.765z"/>
			<path fill="#231F20" d="M136.748,454.909l-0.751-0.351c-16.608-7.75-30.321-20.251-39.656-36.153l-0.516-0.883
				c-9.235-16.129-13.268-34.362-11.667-52.735l0.071-0.824l0.801-0.215l163.378-43.775l0.474,0.682
				c1.474,2.113,2.861,4.299,4.13,6.495c1.262,2.186,2.462,4.483,3.565,6.829l0.354,0.752L136.748,454.909z M86.446,365.816
				c-1.368,17.612,2.576,35.064,11.429,50.522l0.508,0.872c8.949,15.245,22.031,27.28,37.867,34.851l117.83-117.825
				c-0.976-2.026-2.023-4.009-3.117-5.904c-1.099-1.902-2.291-3.798-3.551-5.645L86.446,365.816z"/>
			<path fill="#231F20" d="M81.162,352.511l-0.476-0.679c-10.51-15.019-16.134-32.712-16.266-51.168l-0.005-0.985
				c0.066-18.588,5.689-36.397,16.263-51.512l0.475-0.679l0.801,0.215l163.381,43.778l0.069,0.828
				c0.219,2.578,0.328,5.166,0.324,7.69c0.002,2.536-0.107,5.128-0.327,7.696l-0.07,0.827L81.162,352.511z M82.146,250.203
				c-9.99,14.571-15.301,31.659-15.363,49.474l0.005,0.972c0.126,17.695,5.438,34.669,15.367,49.146l160.957-43.127
				c0.169-2.23,0.254-4.471,0.251-6.67c0.004-2.19-0.08-4.426-0.249-6.663L82.146,250.203z"/>
			<path fill="#231F20" d="M248.38,280.079L84.208,236.09l-0.071-0.825c-1.591-18.275,2.39-36.419,11.514-52.47l0.469-0.819
				c9.35-16.071,23.127-28.687,39.847-36.492l0.751-0.351l0.586,0.586l119.601,119.599l-0.354,0.752
				c-1.094,2.328-2.291,4.624-3.561,6.822c-1.275,2.209-2.667,4.398-4.135,6.505L248.38,280.079z M86.425,234.235l160.959,43.128
				c1.257-1.841,2.45-3.74,3.556-5.654c1.101-1.905,2.146-3.885,3.113-5.896L136.219,147.981
				c-15.942,7.624-29.089,19.772-38.051,35.176l-0.463,0.81C88.959,199.354,85.065,216.719,86.425,234.235z"/>
			<path fill="#231F20" d="M265.29,256.921l-0.587-0.587L145.107,136.742l0.351-0.75c7.759-16.622,20.269-30.339,36.178-39.667
				l0.841-0.489c6.84-3.919,14.123-6.927,21.654-8.944c10.135-2.716,20.655-3.641,31.103-2.734l0.825,0.072l0.215,0.8
				l43.776,163.373l-0.682,0.475c-2.117,1.474-4.304,2.863-6.497,4.128c-2.202,1.271-4.5,2.471-6.829,3.564L265.29,256.921z
				 M147.955,136.244l117.831,117.828c2.012-0.968,3.993-2.014,5.901-3.116c1.901-1.098,3.799-2.29,5.646-3.551l-43.13-160.959
				c-9.926-0.766-19.858,0.158-29.461,2.729c-7.333,1.965-14.428,4.895-21.084,8.708l-0.83,0.483
				C167.578,107.31,155.533,120.395,147.955,136.244z"/>
			<path fill="#231F20" d="M299.993,245.743c-2.536,0-5.128-0.111-7.702-0.329l-0.828-0.07L247.477,81.176l0.679-0.475
				c8.62-6.025,18.143-10.461,28.302-13.184c7.432-1.992,15.144-3.028,22.923-3.081l0.912-0.002
				c18.591,0.061,36.408,5.683,51.531,16.261l0.68,0.475l-0.215,0.801l-43.781,163.375l-0.828,0.071
				C305.114,245.632,302.528,245.743,299.993,245.743z M293.317,243.123c4.468,0.337,8.881,0.336,13.335,0.002l43.135-160.961
				c-14.578-9.995-31.675-15.305-49.495-15.363l-0.9,0.003c-7.573,0.051-15.085,1.06-22.322,2.999
				c-9.627,2.58-18.664,6.738-26.877,12.367L293.317,243.123z"/>
			<path fill="#231F20" d="M334.67,256.915l-0.752-0.353c-2.324-1.091-4.62-2.29-6.824-3.562c-2.204-1.272-4.391-2.662-6.5-4.131
				l-0.682-0.474l43.99-164.168l0.824-0.072c18.18-1.582,36.537,2.447,52.501,11.529l0.771,0.441
				c16.077,9.347,28.699,23.127,36.51,39.857l0.35,0.75L334.67,256.915z M322.628,247.397c1.842,1.258,3.739,2.452,5.648,3.553
				c1.909,1.103,3.891,2.149,5.898,3.115l117.836-117.831c-7.63-15.954-19.783-29.101-35.193-38.061l-0.761-0.436
				c-13.487-7.673-28.095-11.564-43.412-11.564c-2.281,0-4.596,0.091-6.887,0.269L322.628,247.397z"/>
			<path fill="#231F20" d="M351.592,280.07l-0.475-0.683c-1.465-2.107-2.854-4.292-4.129-6.493
				c-1.267-2.196-2.466-4.494-3.566-6.832l-0.354-0.752L463.251,145.13l0.751,0.35c16.639,7.766,30.354,20.271,39.666,36.166
				l0.482,0.83c9.249,16.132,13.29,34.38,11.69,52.778l-0.072,0.826L351.592,280.07z M345.92,265.805
				c0.974,2.021,2.019,4.003,3.116,5.906c1.104,1.906,2.298,3.801,3.552,5.642l160.964-43.128
				c1.368-17.636-2.584-35.102-11.45-50.566l-0.477-0.821c-8.926-15.236-22.011-27.276-37.876-34.86L345.92,265.805z"/>
			<path fill="#231F20" d="M518.847,352.519l-0.801-0.215l-163.381-43.776l-0.069-0.828c-0.218-2.586-0.329-5.172-0.33-7.686
				c0.001-2.546,0.112-5.138,0.332-7.704l0.07-0.827l164.174-43.99l0.475,0.679c10.525,15.047,16.148,32.765,16.264,51.239
				l0.003,0.879c-0.056,18.596-5.68,36.418-16.262,51.549L518.847,352.519z M356.887,306.674l160.968,43.129
				c10-14.586,15.31-31.686,15.362-49.514l-0.002-0.868c-0.111-17.71-5.422-34.709-15.365-49.213l-160.962,43.129
				c-0.17,2.229-0.255,4.471-0.256,6.677C356.633,302.192,356.718,304.429,356.887,306.674z"/>
			<path fill="#231F20" d="M463.246,454.872L343.057,334.687l0.354-0.752c1.087-2.312,2.285-4.605,3.562-6.818
				c1.278-2.213,2.668-4.4,4.131-6.504l0.476-0.682l164.173,43.989l0.071,0.824c1.597,18.308-2.402,36.484-11.565,52.563
				l-0.396,0.688c-9.348,16.088-23.131,28.718-39.865,36.527L463.246,454.872z M345.908,334.192l117.836,117.832
				c15.958-7.629,29.108-19.789,38.07-35.211l0.39-0.68c8.785-15.414,12.696-32.812,11.331-50.359l-160.959-43.129
				c-1.254,1.839-2.447,3.736-3.554,5.653C347.916,330.215,346.87,332.195,345.908,334.192z"/>
		</g>
	</g>
</g>
</svg>
