<svg version="1.1" xmlns="http://www.w3.org/2000/svg" xmlns:xlink="http://www.w3.org/1999/xlink" x="0px" y="0px" width="600px"
	 height="600px" viewBox="0 0 600 600" enable-background="new 0 0 600 600" xml:space="preserve">
<g id="full_color">
	<rect display="none" fill="#FFFFFF" width="600" height="600"/>
	<g>
		<defs>
			<rect id="SVGID_1_" width="300" height="600"/>
		</defs>
		<clipPath id="SVGID_2_">
			<use xlink:href="#SVGID_1_"  overflow="visible"/>
		</clipPath>
		<path clip-path="url(#SVGID_2_)" fill="#2EBD2E" d="M564.228,203.001c2.184-8.151,6.207-15.309,11.478-21.161
			c-9.411-22.036-21.26-42.491-35.152-61.121c-7.912,1.919-16.386,1.945-24.781-0.305c-26.368-7.064-42.191-33.927-36.109-60.606
			c-18.954-14.156-39.521-26.041-61.249-35.394c-12.389,11.758-30.299,17.007-47.866,12.3
			c-17.595-4.714-30.492-18.244-35.325-34.651c-23.146-2.744-46.858-2.789-70.717,0.084c-8.069,26.152-35.208,41.505-61.577,34.44
			c-8.376-2.245-15.687-6.49-21.573-12.09c-22.016,9.449-42.448,21.338-61.054,35.265c1.652,7.72,1.561,15.949-0.628,24.118
			c-7.133,26.625-33.77,42.744-60.128,36.816c-14.05,18.868-25.855,39.331-35.152,60.94c11.093,12.412,15.905,30.098,11.24,47.509
			c-4.672,17.437-17.712,30.359-33.556,35.546c-2.736,23.027-2.804,46.615,0.018,70.351c25.801,8.039,40.815,35.323,33.68,61.954
			c-2.184,8.152-6.206,15.31-11.478,21.163c9.411,22.034,21.258,42.49,35.151,61.119c7.912-1.92,16.386-1.944,24.781,0.304
			c26.365,7.064,42.188,33.927,36.11,60.607c18.952,14.155,39.52,26.04,61.249,35.393c12.388-11.758,30.297-17.007,47.867-12.299
			c17.592,4.714,30.49,18.243,35.324,34.65c23.146,2.743,46.858,2.79,70.718-0.083c8.07-26.151,35.207-41.508,61.578-34.441
			c8.376,2.244,15.686,6.488,21.572,12.089c22.015-9.447,42.448-21.338,61.054-35.264c-1.652-7.719-1.562-15.947,0.629-24.116
			c7.133-26.625,33.766-42.745,60.127-36.819c14.054-18.873,25.862-39.345,35.163-60.963
			c-11.096-12.412-15.909-30.099-11.243-47.512c4.67-17.436,17.709-30.357,33.551-35.545c2.734-23.02,2.801-46.599-0.021-70.328
			C572.104,256.913,557.093,229.63,564.228,203.001z M366.852,549.493C229.06,586.414,87.427,504.646,50.504,366.852
			C13.583,229.06,95.355,87.428,233.148,50.507c137.794-36.922,279.426,44.85,316.347,182.642
			C586.418,370.941,504.647,512.571,366.852,549.493z"/>
		<g clip-path="url(#SVGID_2_)">
			<path fill="#D1EB00" d="M454.062,464.146l-119.48-119.473c-2.317,1.088-4.58,2.27-6.767,3.531s-4.339,2.629-6.437,4.091
				l43.733,163.214c10.386,0.901,20.729-0.005,30.813-2.707c0,0,0,0,0.001-0.001c7.453-1.997,14.663-4.975,21.43-8.849l0.874-0.509
				C434.058,494.151,446.371,480.626,454.062,464.146z"/>
			<path fill="#D1EB00" d="M351.352,519.203l-43.73-163.207c-2.545-0.216-5.099-0.324-7.63-0.326
				c-2.526,0.002-5.076,0.112-7.618,0.327l-43.733,163.217c14.995,10.488,32.534,16.043,51.017,16.108l1.061-0.003
				c7.63-0.057,15.248-1.083,22.593-3.052C333.396,529.565,342.81,525.178,351.352,519.203z"/>
			<path fill="#D1EB00" d="M182.956,504.139c15.938,9.053,33.81,12.958,51.935,11.381l43.735-163.211
				c-2.099-1.46-4.253-2.83-6.443-4.094c-2.188-1.265-4.451-2.446-6.764-3.533L145.937,464.165
				c7.742,16.585,20.16,30.169,36.138,39.471L182.956,504.139z"/>
			<path fill="#D1EB00" d="M96.047,417.39l0.515,0.884c9.285,15.817,22.81,28.131,39.29,35.822l119.479-119.477
				c-1.087-2.313-2.269-4.579-3.533-6.769c-1.263-2.187-2.632-4.341-4.091-6.438L84.49,365.146
				C82.902,383.38,86.862,401.35,96.047,417.39z"/>
			<path fill="#D1EB00" d="M244.005,292.378L80.787,248.643c-10.493,14.998-16.047,32.542-16.113,51.029l0.005,0.986
				c0.132,18.362,5.687,35.794,16.115,50.699l163.21-43.732c0.216-2.544,0.325-5.096,0.323-7.627
				C244.33,297.47,244.221,294.922,244.005,292.378z"/>
			<path fill="#D1EB00" d="M255.305,265.43L135.821,145.948c-16.592,7.745-30.176,20.166-39.474,36.15l-0.471,0.82
				c-9.077,15.97-12.986,33.853-11.407,51.987l163.21,43.732c1.46-2.097,2.83-4.252,4.096-6.446
				C253.038,270.004,254.218,267.742,255.305,265.43z"/>
			<path fill="#D1EB00" d="M145.925,135.844l119.479,119.478c2.313-1.086,4.576-2.268,6.767-3.533
				c2.188-1.262,4.341-2.631,6.438-4.09L234.877,84.484c-10.386-0.9-20.732,0.007-30.817,2.709c-7.463,2-14.679,4.98-21.449,8.859
				l-0.841,0.489C165.952,105.817,153.624,119.349,145.925,135.844z"/>
			<path fill="#D1EB00" d="M248.632,80.806l43.729,163.208c2.553,0.216,5.106,0.326,7.633,0.326c2.524,0,5.074-0.109,7.616-0.324
				l43.738-163.216c-15.008-10.497-32.56-16.05-51.052-16.11l-0.911,0.003c-7.71,0.052-15.348,1.079-22.712,3.052
				C266.589,70.445,257.177,74.832,248.632,80.806z"/>
			<path fill="#D1EB00" d="M417.104,95.906c-15.975-9.089-33.869-13.006-52.017-11.425l-43.733,163.21
				c2.1,1.461,4.255,2.832,6.44,4.093c2.192,1.264,4.454,2.444,6.764,3.53l119.484-119.481
				c-7.75-16.601-20.178-30.191-36.166-39.487L417.104,95.906z"/>
			<path fill="#D1EB00" d="M503.93,182.607l-0.482-0.831c-9.248-15.789-22.788-28.127-39.301-35.833L344.668,265.422
				c1.088,2.313,2.269,4.578,3.534,6.77c1.268,2.191,2.638,4.344,4.093,6.436l163.216-43.733
				C517.098,216.641,513.131,198.656,503.93,182.607z"/>
			<path fill="#D1EB00" d="M535.324,300.293l-0.002-0.878c-0.115-18.376-5.669-35.835-16.113-50.768L355.997,292.38
				c-0.219,2.546-0.327,5.1-0.328,7.632c0.001,2.522,0.111,5.07,0.326,7.618l163.219,43.733
				C529.714,336.351,535.271,318.791,535.324,300.293z"/>
			<path fill="#D1EB00" d="M344.658,334.574l119.485,119.482c16.604-7.749,30.196-20.182,39.495-36.185l0.393-0.688
				c9.123-16.008,13.046-33.916,11.461-52.081l-163.21-43.732c-1.454,2.089-2.823,4.245-4.094,6.446
				C346.923,330.008,345.741,332.269,344.658,334.574z"/>
		</g>
	</g>
	<g>
		<defs>
			<rect id="SVGID_3_" x="300" width="300" height="600"/>
		</defs>
		<clipPath id="SVGID_4_">
			<use xlink:href="#SVGID_3_"  overflow="visible"/>
		</clipPath>
		<path clip-path="url(#SVGID_4_)" fill="#32CD32" d="M564.228,203.001c2.184-8.151,6.207-15.309,11.478-21.161
			c-9.411-22.036-21.26-42.491-35.152-61.121c-7.912,1.919-16.386,1.945-24.781-0.305c-26.368-7.064-42.191-33.927-36.109-60.606
			c-18.954-14.156-39.521-26.041-61.249-35.394c-12.389,11.758-30.299,17.007-47.866,12.3
			c-17.595-4.714-30.492-18.244-35.325-34.651c-23.146-2.744-46.858-2.789-70.717,0.084c-8.069,26.152-35.208,41.505-61.577,34.44
			c-8.376-2.245-15.687-6.49-21.573-12.09c-22.016,9.449-42.448,21.338-61.054,35.265c1.652,7.72,1.561,15.949-0.628,24.118
			c-7.133,26.625-33.77,42.744-60.128,36.816c-14.05,18.868-25.855,39.331-35.152,60.94c11.093,12.412,15.905,30.098,11.24,47.509
			c-4.672,17.437-17.712,30.359-33.556,35.546c-2.736,23.027-2.804,46.615,0.018,70.351c25.801,8.039,40.815,35.323,33.68,61.954
			c-2.184,8.152-6.206,15.31-11.478,21.163c9.411,22.034,21.258,42.49,35.151,61.119c7.912-1.92,16.386-1.944,24.781,0.304
			c26.365,7.064,42.188,33.927,36.11,60.607c18.952,14.155,39.52,26.04,61.249,35.393c12.388-11.758,30.297-17.007,47.867-12.299
			c17.592,4.714,30.49,18.243,35.324,34.65c23.146,2.743,46.858,2.79,70.718-0.083c8.07-26.151,35.207-41.508,61.578-34.441
			c8.376,2.244,15.686,6.488,21.572,12.089c22.015-9.447,42.448-21.338,61.054-35.264c-1.652-7.719-1.562-15.947,0.629-24.116
			c7.133-26.625,33.766-42.745,60.127-36.819c14.054-18.873,25.862-39.345,35.163-60.963
			c-11.096-12.412-15.909-30.099-11.243-47.512c4.67-17.436,17.709-30.357,33.551-35.545c2.734-23.02,2.801-46.599-0.021-70.328
			C572.104,256.913,557.093,229.63,564.228,203.001z M366.852,549.493C229.06,586.414,87.427,504.646,50.504,366.852
			C13.583,229.06,95.355,87.428,233.148,50.507c137.794-36.922,279.426,44.85,316.347,182.642
			C586.418,370.941,504.647,512.571,366.852,549.493z"/>
		<g clip-path="url(#SVGID_4_)">
			<path fill="#E3FF00" d="M454.062,464.146l-119.48-119.473c-2.317,1.088-4.58,2.27-6.767,3.531s-4.339,2.629-6.437,4.091
				l43.733,163.214c10.386,0.901,20.729-0.005,30.813-2.707c0,0,0,0,0.001-0.001c7.453-1.997,14.663-4.975,21.43-8.849l0.874-0.509
				C434.058,494.151,446.371,480.626,454.062,464.146z"/>
			<path fill="#E3FF00" d="M351.352,519.203l-43.73-163.207c-2.545-0.216-5.099-0.324-7.63-0.326
				c-2.526,0.002-5.076,0.112-7.618,0.327l-43.733,163.217c14.995,10.488,32.534,16.043,51.017,16.108l1.061-0.003
				c7.63-0.057,15.248-1.083,22.593-3.052C333.396,529.565,342.81,525.178,351.352,519.203z"/>
			<path fill="#E3FF00" d="M182.956,504.139c15.938,9.053,33.81,12.958,51.935,11.381l43.735-163.211
				c-2.099-1.46-4.253-2.83-6.443-4.094c-2.188-1.265-4.451-2.446-6.764-3.533L145.937,464.165
				c7.742,16.585,20.16,30.169,36.138,39.471L182.956,504.139z"/>
			<path fill="#E3FF00" d="M96.047,417.39l0.515,0.884c9.285,15.817,22.81,28.131,39.29,35.822l119.479-119.477
				c-1.087-2.313-2.269-4.579-3.533-6.769c-1.263-2.187-2.632-4.341-4.091-6.438L84.49,365.146
				C82.902,383.38,86.862,401.35,96.047,417.39z"/>
			<path fill="#E3FF00" d="M244.005,292.378L80.787,248.643c-10.493,14.998-16.047,32.542-16.113,51.029l0.005,0.986
				c0.132,18.362,5.687,35.794,16.115,50.699l163.21-43.732c0.216-2.544,0.325-5.096,0.323-7.627
				C244.33,297.47,244.221,294.922,244.005,292.378z"/>
			<path fill="#E3FF00" d="M255.305,265.43L135.821,145.948c-16.592,7.745-30.176,20.166-39.474,36.15l-0.471,0.82
				c-9.077,15.97-12.986,33.853-11.407,51.987l163.21,43.732c1.46-2.097,2.83-4.252,4.096-6.446
				C253.038,270.004,254.218,267.742,255.305,265.43z"/>
			<path fill="#E3FF00" d="M145.925,135.844l119.479,119.478c2.313-1.086,4.576-2.268,6.767-3.533
				c2.188-1.262,4.341-2.631,6.438-4.09L234.877,84.484c-10.386-0.9-20.732,0.007-30.817,2.709c-7.463,2-14.679,4.98-21.449,8.859
				l-0.841,0.489C165.952,105.817,153.624,119.349,145.925,135.844z"/>
			<path fill="#E3FF00" d="M248.632,80.806l43.729,163.208c2.553,0.216,5.106,0.326,7.633,0.326c2.524,0,5.074-0.109,7.616-0.324
				l43.738-163.216c-15.008-10.497-32.56-16.05-51.052-16.11l-0.911,0.003c-7.71,0.052-15.348,1.079-22.712,3.052
				C266.589,70.445,257.177,74.832,248.632,80.806z"/>
			<path fill="#E3FF00" d="M417.104,95.906c-15.975-9.089-33.869-13.006-52.017-11.425l-43.733,163.21
				c2.1,1.461,4.255,2.832,6.44,4.093c2.192,1.264,4.454,2.444,6.764,3.53l119.484-119.481
				c-7.75-16.601-20.178-30.191-36.166-39.487L417.104,95.906z"/>
			<path fill="#E3FF00" d="M503.93,182.607l-0.482-0.831c-9.248-15.789-22.788-28.127-39.301-35.833L344.668,265.422
				c1.088,2.313,2.269,4.578,3.534,6.77c1.268,2.191,2.638,4.344,4.093,6.436l163.216-43.733
				C517.098,216.641,513.131,198.656,503.93,182.607z"/>
			<path fill="#E3FF00" d="M535.324,300.293l-0.002-0.878c-0.115-18.376-5.669-35.835-16.113-50.768L355.997,292.38
				c-0.219,2.546-0.327,5.1-0.328,7.632c0.001,2.522,0.111,5.07,0.326,7.618l163.219,43.733
				C529.714,336.351,535.271,318.791,535.324,300.293z"/>
			<path fill="#E3FF00" d="M344.658,334.574l119.485,119.482c16.604-7.749,30.196-20.182,39.495-36.185l0.393-0.688
				c9.123-16.008,13.046-33.916,11.461-52.081l-163.21-43.732c-1.454,2.089-2.823,4.245-4.094,6.446
				C346.923,330.008,345.741,332.269,344.658,334.574z"/>
		</g>
	</g>
</g>
</svg>
