<?xml version="1.0" standalone="no"?>
<!DOCTYPE svg PUBLIC "-//W3C//DTD SVG 20010904//EN"
 "http://www.w3.org/TR/2001/REC-SVG-20010904/DTD/svg10.dtd">
<svg version="1.0" xmlns="http://www.w3.org/2000/svg"
 width="600.000000pt" height="600.000000pt" viewBox="0 0 600.000000 600.000000"
 preserveAspectRatio="xMidYMid meet">
<metadata>
Created by potrace 1.11, written by Peter Selinger 2001-2013
</metadata>
<g transform="translate(0.000000,600.000000) scale(0.100000,-0.100000)"
fill="#000000" stroke="none">
<path d="M2460 5473 c-63 -13 -178 -46 -255 -71 l-140 -47 -16 -66 c-22 -90
-52 -149 -106 -209 -112 -124 -288 -170 -446 -116 l-68 23 -72 -62 c-81 -70
-278 -271 -320 -326 l-27 -35 19 -50 c43 -114 35 -231 -26 -346 -59 -112 -153
-184 -284 -216 l-74 -18 -47 -140 c-45 -136 -98 -357 -98 -412 0 -19 9 -33 31
-47 17 -11 51 -46 75 -79 129 -172 107 -420 -51 -564 -39 -36 -55 -58 -55 -76
0 -53 53 -276 98 -411 l47 -139 66 -12 c257 -47 409 -303 325 -549 l-24 -70
25 -35 c34 -46 318 -329 364 -363 l36 -27 49 22 c68 30 202 37 275 13 155 -50
258 -170 292 -336 l13 -64 139 -47 c134 -45 358 -98 411 -98 18 0 41 17 80 60
169 182 436 183 612 2 l64 -66 76 13 c107 18 279 63 392 103 l95 34 16 66 c22
89 52 148 106 208 112 124 288 170 446 116 l68 -23 72 62 c81 70 278 271 320
326 l27 35 -19 50 c-43 114 -35 231 26 346 59 112 153 184 284 216 l74 18 47
140 c45 136 98 357 98 412 0 19 -9 33 -31 47 -17 11 -51 46 -75 79 -129 172
-107 420 51 564 39 36 55 58 55 76 0 53 -53 276 -98 411 l-47 139 -66 12
c-257 47 -409 303 -325 549 l24 70 -25 35 c-34 46 -318 329 -364 363 l-36 27
-49 -22 c-68 -30 -202 -37 -275 -13 -155 50 -258 170 -292 336 l-13 64 -139
47 c-134 45 -358 98 -411 98 -18 0 -41 -17 -80 -60 -168 -181 -436 -183 -611
-3 -71 73 -66 73 -233 36z m782 -318 c259 -30 473 -92 703 -204 445 -217 789
-561 1006 -1006 334 -685 281 -1501 -138 -2135 -544 -823 -1563 -1177 -2498
-868 -548 181 -1009 586 -1266 1113 -476 978 -152 2155 761 2758 417 275 938
400 1432 342z"/>
<path d="M2495 4920 c-138 -36 -256 -103 -349 -198 l-48 -50 357 -619 c196
-340 358 -619 359 -620 1 -1 29 5 62 13 l61 16 8 715 c6 594 5 717 -7 724 -64
40 -322 51 -443 19z"/>
<path d="M3175 4934 c-11 -3 -44 -12 -73 -20 l-52 -15 2 -717 3 -717 64 -17
c36 -10 66 -16 67 -15 1 1 163 281 360 621 l357 619 -69 66 c-86 81 -157 124
-271 164 -80 28 -101 31 -228 33 -77 2 -149 0 -160 -2z"/>
<path d="M1920 4596 c-130 -38 -214 -89 -320 -196 -107 -106 -163 -199 -199
-328 l-20 -72 22 -14 c12 -8 292 -170 622 -361 l599 -346 48 48 48 48 -354
614 c-195 337 -358 617 -363 621 -4 5 -42 -2 -83 -14z"/>
<path d="M3986 4597 c-8 -12 -170 -292 -361 -622 l-346 -599 48 -48 48 -48
600 346 c330 190 610 352 622 360 l22 14 -20 72 c-36 129 -92 222 -199 328
-106 107 -199 163 -328 199 l-72 20 -14 -22z"/>
<path d="M1269 3843 c-99 -102 -153 -200 -191 -343 -25 -99 -26 -267 -1 -365
l18 -70 722 -3 722 -2 14 62 c8 35 14 64 13 65 -2 3 -1220 705 -1231 709 -5 2
-35 -22 -66 -53z"/>
<path d="M4060 3549 c-333 -192 -611 -353 -617 -357 -10 -6 -9 -22 5 -72 l17
-65 717 -3 717 -2 17 55 c54 188 23 435 -77 601 -33 54 -154 194 -167 194 -4
-1 -279 -158 -612 -351z"/>
<path d="M1096 2931 c-19 -29 -38 -159 -37 -251 0 -209 77 -395 219 -534 l50
-49 604 348 c332 192 610 353 619 359 14 10 14 18 2 74 l-14 62 -719 0 c-406
0 -721 -4 -724 -9z"/>
<path d="M3447 2878 c-12 -56 -12 -64 2 -74 9 -6 288 -167 619 -358 l604 -348
50 48 c96 94 162 211 200 354 25 99 26 267 1 365 l-18 70 -722 3 -722 2 -14
-62z"/>
<path d="M2025 2374 c-330 -190 -610 -352 -622 -360 l-22 -14 20 -72 c36 -129
92 -222 199 -328 106 -107 199 -163 328 -199 l72 -20 14 22 c8 12 170 292 360
622 l346 599 -48 48 -47 48 -600 -346z"/>
<path d="M3327 2672 l-47 -48 346 -599 c190 -330 352 -610 360 -622 l14 -22
72 20 c129 36 222 92 328 199 107 106 163 199 199 328 l20 72 -22 14 c-21 14
-1219 706 -1222 706 0 0 -22 -22 -48 -48z"/>
<path d="M2455 1947 l-358 -620 69 -66 c86 -81 157 -124 271 -164 78 -27 103
-31 223 -34 107 -3 150 0 205 14 l70 18 3 723 c1 397 -1 722 -5 722 -5 1 -33
7 -64 14 l-56 13 -358 -620z"/>
<path d="M3115 2552 l-60 -17 -3 -717 -2 -717 57 -18 c45 -14 93 -18 213 -18
148 0 159 1 243 31 113 41 183 83 270 165 l71 65 -360 622 c-197 342 -361 622
-364 621 -3 0 -32 -8 -65 -17z"/>
</g>
</svg>
